<?xml version="1.0" standalone="no"?>
<!DOCTYPE svg PUBLIC "-//W3C//DTD SVG 20010904//EN"
 "http://www.w3.org/TR/2001/REC-SVG-20010904/DTD/svg10.dtd">
<svg version="1.0" xmlns="http://www.w3.org/2000/svg"
 width="3000.000000pt" height="1802.000000pt" viewBox="0 0 3000.000000 1802.000000"
 preserveAspectRatio="xMidYMid meet">
<metadata>
Created by potrace 1.16, written by Peter Selinger 2001-2019
</metadata>
<g transform="translate(0.000000,1802.000000) scale(0.100000,-0.100000)"
fill="#000000" stroke="none">
<path d="M0 9010 l0 -9010 15000 0 15000 0 0 9010 0 9010 -1156 0 c-767 0
-1153 -3 -1149 -10 3 -5 2 -10 -4 -10 -5 0 -13 5 -16 11 -5 7 -101 9 -291 8
-259 -2 -286 -4 -294 -20 -11 -19 9 -33 35 -23 22 9 38 -5 24 -22 -9 -11 -8
-14 3 -14 16 0 48 -35 48 -52 0 -8 3 -9 10 -2 12 12 -15 74 -33 74 -7 0 -8 3
-1 10 12 12 56 1 51 -13 -4 -14 24 -47 40 -47 13 0 17 12 14 38 -2 10 2 10 21
0 13 -7 26 -17 30 -23 5 -6 8 -5 8 3 0 6 7 12 15 12 8 0 15 7 15 15 0 23 67
20 73 -2 4 -15 5 -14 6 3 1 30 38 61 53 46 7 -7 31 -12 54 -12 25 0 44 -5 47
-12 3 -10 10 -8 25 5 14 13 22 15 27 7 9 -15 -23 -80 -39 -80 -14 0 -32 -48
-21 -58 3 -3 5 1 5 9 0 8 13 22 28 31 15 9 34 28 42 42 16 30 25 33 34 9 4
-10 1 -20 -9 -25 -30 -18 -17 -38 25 -38 29 0 40 -4 40 -15 0 -9 9 -15 23 -15
16 0 18 3 9 9 -11 7 -10 10 3 15 30 11 44 6 47 -16 2 -17 13 -25 41 -32 32 -8
37 -13 37 -38 0 -28 13 -37 25 -18 3 6 15 10 26 10 11 0 18 4 15 9 -7 10 79 9
90 -1 4 -5 23 -8 43 -8 34 -1 35 -2 17 -15 -11 -8 -28 -15 -38 -15 -10 0 -18
-5 -18 -10 0 -12 79 -2 98 13 6 5 12 20 12 33 0 13 5 24 10 24 6 0 10 -11 10
-24 0 -13 7 -29 15 -36 13 -11 15 -8 15 18 l0 29 42 -20 42 -21 -49 -12 c-27
-7 -53 -10 -57 -7 -15 9 -55 -6 -55 -20 0 -8 9 -19 19 -26 11 -7 18 -7 18 -1
0 5 9 10 21 10 11 0 17 4 14 10 -3 5 0 7 8 4 8 -3 14 -12 13 -21 0 -9 5 -18
12 -20 6 -3 12 2 12 11 0 9 7 16 15 16 8 0 15 -5 15 -11 0 -5 4 -8 9 -4 6 3 7
-9 4 -30 -5 -31 -3 -35 16 -35 12 0 24 -7 27 -15 4 -8 12 -15 20 -15 8 0 14
-7 14 -15 0 -18 9 -19 32 -1 20 15 14 26 -14 26 -13 0 -18 7 -18 28 1 24 2 25
14 10 16 -22 46 -23 46 -2 0 8 5 12 10 9 6 -3 10 -1 10 4 0 6 17 11 39 11 32
0 39 -4 43 -23 4 -20 1 -23 -23 -19 -35 5 -59 -17 -59 -55 l0 -27 16 22 c17
24 40 29 47 10 4 -10 8 -10 15 1 6 8 12 9 16 3 3 -6 1 -14 -6 -19 -23 -14 -99
-30 -104 -22 -12 20 -34 8 -34 -19 0 -15 -5 -33 -12 -40 -9 -9 -9 -12 0 -12
19 0 15 -87 -4 -98 -15 -8 -14 -10 2 -16 12 -5 23 -1 32 11 8 11 9 19 2 21
-14 5 -13 95 2 110 19 19 28 14 28 -12 0 -14 7 -31 15 -40 19 -19 19 -30 0
-46 -8 -7 -15 -22 -15 -35 0 -18 9 -24 51 -33 28 -7 64 -12 80 -12 19 0 29 -5
29 -15 0 -17 -16 -20 -25 -5 -3 6 -16 10 -27 10 -20 0 -20 -1 -5 -18 10 -10
15 -21 12 -24 -3 -3 1 -8 9 -11 9 -4 23 1 31 10 11 10 20 12 26 6 7 -7 5 -16
-7 -27 -21 -21 -12 -30 21 -22 19 5 25 13 25 32 0 24 2 26 34 20 48 -9 86 26
86 80 0 53 16 78 26 40 5 -19 10 -24 17 -17 16 16 57 13 64 -4 3 -9 13 -15 22
-13 40 7 78 -67 50 -97 -5 -5 -9 -17 -9 -27 0 -10 -7 -21 -15 -24 -19 -8 -19
-34 0 -48 14 -10 14 -13 1 -31 -14 -18 -15 -18 -16 -2 0 10 -8 17 -20 17 -17
0 -20 -7 -20 -40 0 -33 -3 -40 -20 -40 -12 0 -20 -7 -20 -16 0 -11 5 -14 16
-10 25 10 93 -13 104 -34 9 -17 7 -20 -14 -20 -13 0 -26 5 -28 12 -3 8 -9 8
-24 0 -17 -10 -17 -11 -1 -12 9 0 17 -7 17 -15 0 -11 12 -15 45 -15 41 0 45
-2 45 -25 0 -16 6 -25 15 -25 19 0 19 -24 0 -40 -22 -18 -22 -220 0 -220 8 0
15 5 15 10 0 6 11 10 25 10 23 0 25 4 26 43 0 23 3 35 6 27 3 -8 19 -27 37
-42 l31 -27 -27 -1 c-27 0 -28 -2 -28 -53 0 -31 6 -61 14 -73 15 -19 15 -19
30 1 20 27 41 7 32 -29 -6 -24 -24 -31 -37 -13 -3 4 -20 0 -39 -9 -31 -16 -34
-16 -45 0 -7 9 -15 16 -18 16 -8 0 16 -74 26 -81 5 -4 6 -12 2 -19 -9 -14 -45
21 -45 45 0 8 -5 15 -11 15 -7 0 -9 -11 -6 -30 6 -27 3 -32 -35 -51 -33 -17
-42 -18 -50 -7 -7 9 -8 4 -5 -16 4 -23 -1 -34 -21 -50 -15 -12 -32 -20 -39
-18 -19 4 -16 -16 7 -40 21 -23 29 -51 8 -30 -20 20 -31 14 -24 -13 6 -23 4
-25 -29 -25 -34 0 -35 -1 -35 -40 0 -22 -4 -40 -10 -40 -5 0 -10 14 -10 30 0
18 -5 30 -13 30 -25 0 -27 -12 -7 -40 11 -16 20 -33 20 -39 0 -6 5 -11 10 -11
6 0 10 7 10 16 0 12 8 15 33 12 31 -3 33 -2 30 27 l-2 30 11 -27 c15 -36 41
-36 55 0 l11 27 1 -25 c1 -14 10 -40 21 -58 19 -30 19 -33 3 -30 -9 2 -20 14
-23 27 -5 21 -7 22 -18 8 -8 -9 -12 -24 -10 -34 3 -17 10 -19 86 -22 14 -1 22
-7 22 -18 0 -10 7 -27 15 -37 20 -27 19 -48 -4 -68 -15 -13 -25 -14 -55 -4
-20 6 -36 14 -36 18 0 5 -7 8 -15 8 -10 0 -15 -10 -15 -28 0 -34 -33 -57 -79
-53 l-34 3 7 -39 c3 -21 9 -53 12 -70 4 -21 2 -33 -5 -33 -6 0 -11 11 -11 24
0 44 -8 52 -48 48 -51 -6 -86 -30 -71 -48 6 -8 18 -14 26 -14 8 0 11 -5 8 -10
-4 -6 -10 -8 -15 -5 -13 8 -23 -36 -11 -48 17 -17 13 -47 -5 -47 -14 0 -14 -2
-3 -16 8 -10 15 -12 17 -5 5 14 52 15 52 1 0 -5 -9 -19 -21 -31 -17 -17 -18
-23 -7 -36 7 -9 13 -28 13 -42 0 -21 5 -27 28 -29 48 -6 32 -28 -18 -24 l-45
4 0 -41 0 -41 40 0 c28 0 40 -4 40 -15 0 -7 8 -18 17 -24 14 -7 15 -12 4 -24
-7 -9 -19 -13 -26 -11 -8 3 -22 1 -32 -5 -17 -9 -16 -10 7 -19 15 -6 32 -6 42
-1 24 13 34 11 52 -7 9 -8 16 -11 16 -6 0 5 11 14 24 20 20 9 25 8 30 -4 8
-22 8 -22 -16 -26 -23 -3 -22 -4 7 -33 29 -29 30 -30 33 -7 2 12 8 22 13 22
13 0 11 -54 -3 -68 -9 -9 -3 -12 29 -12 30 0 42 -5 47 -17 3 -10 9 -24 12 -30
4 -9 -4 -13 -26 -13 -28 0 -31 -2 -25 -22 4 -13 11 -27 16 -33 17 -17 9 -25
-26 -25 -19 0 -35 -5 -35 -11 0 -7 23 -10 63 -9 105 4 119 -2 76 -28 -17 -11
-23 -11 -36 0 -13 10 -17 10 -20 1 -3 -8 -21 -13 -44 -13 -23 0 -39 -5 -39
-11 0 -9 21 -10 70 -6 51 4 69 3 67 -6 -2 -11 27 -15 112 -17 27 0 41 -15 41
-42 0 -27 -17 -22 -24 7 -4 14 -10 25 -15 25 -4 0 -14 -11 -21 -25 -9 -17 -22
-25 -39 -25 l-26 -1 29 -15 c31 -17 95 -11 108 9 4 6 10 8 15 4 4 -5 1 -12 -6
-16 -7 -5 -11 -17 -9 -27 2 -13 12 -18 38 -18 32 -1 35 -3 33 -31 -1 -16 5
-37 14 -47 15 -17 14 -18 -28 -18 -43 0 -44 -1 -23 -18 12 -9 24 -25 27 -34 3
-10 22 -20 42 -24 39 -7 36 -20 -5 -26 -19 -2 -25 -9 -25 -28 0 -18 5 -25 18
-23 10 0 16 -2 13 -5 -4 -3 3 -16 15 -28 l21 -22 -22 -22 c-12 -12 -20 -30
-18 -43 4 -21 5 -21 18 6 14 29 47 39 36 11 -3 -9 -6 -26 -6 -39 0 -31 -38
-41 -65 -16 -34 32 -175 11 -175 -25 0 -8 -4 -14 -10 -14 -5 0 -10 7 -10 15 0
8 -4 15 -10 15 -14 0 -13 -6 7 -43 l16 -32 16 36 c12 27 22 35 41 35 36 -1 32
-30 -5 -36 -19 -3 -31 -12 -33 -24 -3 -11 -17 -33 -33 -49 -16 -16 -29 -33
-29 -39 0 -6 -6 -5 -16 3 -13 10 -17 10 -25 -2 -11 -18 -11 -30 0 -48 12 -18
41 -7 42 16 0 15 2 14 9 -4 11 -28 2 -63 -15 -56 -11 4 -12 0 -2 -21 9 -19 20
-26 40 -26 17 0 27 -5 27 -15 0 -10 -10 -15 -30 -15 -16 0 -30 -5 -30 -11 0
-8 -4 -8 -13 -1 -7 6 -18 7 -26 2 -8 -4 -20 -6 -28 -3 -9 3 -13 -3 -13 -20 0
-20 4 -24 20 -20 14 4 20 0 20 -11 0 -9 8 -16 20 -16 17 0 20 -7 20 -39 0 -36
-3 -40 -27 -43 -21 -2 -29 -10 -37 -35 -8 -31 -12 -33 -55 -34 -25 -1 -36 -4
-24 -6 18 -3 23 -13 26 -46 l4 -42 1 43 c2 53 23 56 39 5 9 -29 9 -40 0 -45
-35 -22 -42 -30 -29 -35 19 -7 14 -23 -8 -23 -14 0 -18 5 -13 16 3 9 0 20 -8
25 -19 12 -29 11 -29 -2 0 -7 -12 -23 -26 -36 -18 -16 -24 -30 -20 -43 3 -11
9 -29 12 -40 5 -17 2 -20 -24 -20 -27 0 -30 -3 -28 -27 2 -15 8 -29 15 -31 22
-7 10 -22 -18 -22 -23 0 -30 5 -33 23 -2 14 -10 22 -25 23 -19 1 -20 -1 -10
-20 7 -12 16 -24 21 -28 5 -3 -9 -19 -31 -35 -65 -45 -79 -83 -32 -83 17 0 18
3 9 20 -10 18 -8 20 22 19 18 0 27 -3 21 -6 -7 -2 -13 -14 -13 -25 0 -18 4
-19 40 -13 33 6 40 4 40 -10 0 -9 -10 -25 -22 -34 -11 -10 -18 -23 -14 -29 9
-15 36 -4 36 15 0 8 4 11 10 8 14 -9 -10 -44 -33 -47 -10 -2 -18 -7 -18 -13 0
-5 -9 -13 -20 -17 -25 -10 -24 -25 2 -33 21 -7 21 -7 -4 -31 -23 -21 -36 -24
-101 -24 -41 0 -78 -4 -81 -10 -3 -5 -22 -10 -41 -10 -19 0 -34 -5 -34 -11 0
-11 -28 -9 -64 6 -19 8 -19 8 -1 -22 17 -29 17 -33 2 -65 -9 -18 -17 -28 -17
-21 0 7 -19 14 -42 16 l-43 4 40 1 c32 2 42 7 52 27 6 14 7 25 2 25 -5 0 -9
-4 -9 -10 0 -5 -13 -10 -29 -10 -53 0 -90 -12 -96 -31 -8 -25 -21 -24 -53 6
-15 14 -33 25 -40 25 -19 0 -26 -28 -12 -45 11 -13 7 -15 -26 -15 -50 0 -83
-19 -39 -22 33 -2 65 -4 79 -7 6 0 6 -4 0 -10 -5 -6 -44 -11 -87 -12 -73 -3
-79 -5 -92 -28 -8 -15 -14 -20 -15 -13 0 6 -11 12 -25 12 -18 0 -25 -5 -25
-20 0 -11 -4 -20 -10 -20 -5 0 -10 7 -10 16 0 25 -24 11 -39 -24 -16 -36 -41
-43 -41 -11 0 15 -5 19 -17 15 -10 -3 -30 -8 -45 -12 -16 -3 -28 -9 -28 -13 0
-12 -65 -32 -68 -21 -9 25 -22 6 -22 -30 0 -22 -4 -40 -10 -40 -5 0 -10 18
-10 40 0 22 -4 40 -10 40 -5 0 -10 -18 -10 -40 0 -38 -13 -54 -23 -27 -3 10
-9 10 -26 0 -29 -18 -51 -16 -51 3 0 9 -6 14 -12 11 -7 -2 -12 -12 -10 -21 5
-28 -17 -47 -39 -35 -14 7 -19 6 -19 -2 0 -9 -5 -8 -18 2 -29 24 -56 36 -70
32 -18 -7 -16 -83 3 -83 9 0 12 -6 9 -15 -4 -8 -10 -15 -15 -15 -5 0 -9 7 -9
15 0 9 -9 15 -25 15 -14 0 -25 -5 -25 -10 0 -15 -52 -59 -69 -60 -8 0 -22 7
-32 16 -16 14 -18 13 -31 -13 -7 -15 -20 -29 -28 -29 -8 -1 -28 -2 -43 -3 -17
-1 -41 -13 -59 -32 -20 -19 -38 -29 -50 -26 -11 3 -18 0 -18 -9 0 -8 5 -14 11
-14 6 0 9 -5 7 -12 -3 -8 -21 -11 -50 -9 -42 2 -47 0 -51 -21 l-4 -23 -2 23
c-1 29 -41 32 -41 2 0 -13 -7 -20 -20 -20 -25 0 -100 -72 -82 -78 10 -3 10 -7
1 -18 -15 -18 -48 -18 -55 1 -4 8 -12 15 -20 15 -17 0 -19 -27 -2 -33 7 -2 10
-8 6 -12 -11 -11 -28 4 -28 26 0 10 -7 19 -15 19 -11 0 -15 -12 -15 -44 0 -39
-18 -76 -36 -76 -3 0 -2 24 0 53 3 28 3 44 0 35 -3 -10 -10 -18 -15 -18 -6 0
-7 -5 -4 -11 4 -6 -2 -13 -14 -16 -17 -4 -21 -13 -21 -44 0 -28 -4 -39 -15
-39 -8 0 -15 -5 -15 -11 0 -14 -26 -39 -40 -39 -6 0 -18 7 -26 15 -26 26 -174
12 -174 -17 0 -4 -17 -8 -37 -8 -22 0 -49 -9 -63 -20 -14 -11 -33 -20 -42 -20
-10 0 -18 -7 -18 -15 0 -11 -7 -14 -24 -9 -17 4 -28 0 -39 -16 -13 -18 -23
-22 -60 -19 -25 2 -43 0 -40 -4 10 -17 -30 -48 -54 -42 -16 4 -23 1 -23 -9 0
-8 -16 -16 -40 -20 -26 -4 -40 -11 -40 -21 0 -11 -11 -15 -40 -15 -22 0 -40
-4 -40 -10 0 -5 -11 -10 -25 -10 -15 0 -36 -11 -49 -25 -29 -31 -76 -34 -76
-6 0 29 -27 34 -34 6 -11 -43 -127 -59 -143 -19 -3 8 -11 14 -19 14 -16 0 -19
-26 -4 -35 12 -7 14 -95 3 -95 -5 0 -8 16 -9 35 0 19 -4 38 -8 42 -11 11 -26
-18 -27 -52 0 -16 -3 -24 -6 -17 -2 7 -22 12 -44 12 -27 0 -39 4 -39 14 0 8 6
16 13 19 6 2 -4 4 -23 5 -25 1 -30 -2 -20 -9 13 -8 13 -10 1 -18 -9 -6 -11
-18 -7 -35 7 -30 0 -33 -26 -9 -14 13 -18 13 -18 2 0 -8 -18 -23 -40 -33 -22
-11 -40 -24 -40 -30 0 -6 -4 -5 -9 3 -5 8 -7 20 -4 28 3 7 -2 13 -11 13 -10 0
-16 -9 -16 -24 0 -37 -19 -42 -26 -7 -8 40 -22 40 -16 1 3 -19 0 -30 -8 -30
-7 0 -10 -7 -6 -16 3 -8 2 -12 -4 -9 -5 3 -12 -6 -16 -20 -6 -25 -23 -35 -25
-15 -1 6 -2 15 -3 22 -2 17 -26 22 -26 5 0 -26 -23 -35 -104 -41 -44 -3 -90
-13 -102 -21 -13 -8 -30 -12 -39 -9 -10 4 -22 -1 -30 -12 -13 -18 -14 -18 -21
-1 -5 15 -9 16 -15 5 -5 -7 -14 -13 -21 -13 -7 -1 -12 -6 -11 -11 1 -6 -22
-11 -55 -12 -31 -1 -70 -8 -87 -16 -63 -30 -82 -35 -155 -40 -41 -3 -102 -14
-135 -24 -33 -9 -86 -17 -117 -16 -32 1 -58 -2 -58 -6 0 -4 -26 -19 -59 -34
-32 -14 -64 -33 -71 -41 -7 -8 -28 -15 -47 -15 -19 0 -32 -4 -29 -9 3 -5 -3
-11 -14 -14 -11 -3 -20 -1 -20 5 0 5 -10 6 -22 2 -13 -4 -86 -7 -163 -6 -106
1 -147 -2 -170 -13 -16 -9 -22 -13 -13 -11 9 3 22 -2 28 -9 7 -8 17 -12 23 -8
5 3 16 -2 23 -11 7 -11 29 -19 51 -21 89 -7 158 -19 165 -29 5 -7 17 -5 38 8
17 10 34 15 37 12 3 -3 14 -1 23 4 13 7 20 6 24 -5 3 -8 10 -15 16 -15 6 0 9
4 5 9 -3 5 -2 12 3 15 4 2 18 -9 31 -25 17 -21 29 -28 42 -24 14 5 19 1 19
-14 0 -12 -4 -21 -10 -21 -5 0 -10 5 -10 10 0 16 -52 12 -64 -5 -15 -20 -51
-27 -108 -19 -31 4 -48 11 -52 22 -2 10 -4 5 -3 -9 2 -31 -19 -60 -38 -53 -14
6 -30 -29 -21 -45 4 -5 3 -16 0 -25 -5 -14 -8 -14 -21 -1 -21 21 -36 18 -30
-5 8 -29 -28 -47 -52 -26 -20 18 -41 5 -41 -25 0 -10 -5 -21 -10 -24 -16 -10
-45 26 -42 51 4 29 -14 39 -34 20 -11 -11 -12 -21 -6 -33 13 -23 -4 -38 -52
-46 -22 -3 -42 -10 -45 -15 -12 -18 -47 -31 -62 -21 -10 6 -11 9 -1 9 7 0 10
5 7 10 -8 13 -46 2 -60 -17 -15 -20 -115 -30 -126 -12 -7 11 -9 9 -9 -8 0 -30
-18 -39 -35 -17 -13 18 -15 17 -27 -13 -12 -33 -31 -42 -43 -23 -14 22 -125 8
-125 -16 0 -8 -7 -15 -15 -15 -49 -4 -77 -3 -82 4 -2 4 1 7 6 7 6 0 11 5 11
10 0 6 -13 10 -30 10 -23 0 -30 -4 -30 -20 0 -26 -24 -36 -53 -22 -21 10 -21
11 6 11 43 1 32 21 -12 21 -22 0 -43 -4 -46 -10 -3 -5 -17 -10 -30 -10 -13 0
-27 -4 -30 -10 -3 -5 -32 -10 -63 -10 -41 0 -53 -3 -42 -10 11 -7 3 -10 -30
-10 -33 0 -41 3 -30 10 8 5 11 10 5 10 -18 0 -33 -14 -37 -35 -3 -18 -10 -20
-63 -18 -33 2 -86 3 -118 3 -33 0 -72 7 -88 15 -26 14 -29 14 -29 0 0 -19 -46
-31 -63 -16 -10 7 -19 7 -33 -3 -22 -15 -164 -28 -164 -15 0 14 -30 10 -46 -6
-17 -16 -94 -21 -94 -6 0 6 -15 5 -36 -1 -28 -7 -39 -7 -45 4 -6 10 -11 10
-21 0 -16 -16 -58 -16 -54 0 1 7 1 10 -1 6 -3 -5 -10 -8 -18 -8 -7 0 -18 -7
-25 -15 -10 -12 -32 -15 -106 -12 -52 2 -88 0 -82 -5 8 -5 -2 -8 -24 -8 -21 0
-38 -5 -38 -11 0 -5 -5 -7 -11 -3 -6 3 -14 2 -18 -3 -9 -14 -81 -26 -81 -14 0
6 -17 13 -37 17 -21 4 -40 10 -43 15 -3 4 -26 10 -52 13 -25 3 -59 11 -74 16
-15 6 -30 7 -33 3 -13 -17 -71 -53 -87 -53 -10 0 -14 -5 -11 -14 3 -8 -2 -17
-11 -20 -36 -13 -58 -32 -54 -44 2 -7 -2 -12 -9 -11 -16 3 -38 -5 -99 -34 -25
-11 -48 -20 -52 -19 -5 1 -8 -3 -8 -8 0 -18 -44 -10 -99 18 -72 36 -190 147
-320 303 -58 69 -143 167 -188 218 l-83 91 0 172 c0 107 -6 211 -16 273 -8 55
-16 126 -16 157 0 31 -7 83 -15 115 -8 32 -19 87 -25 123 -8 57 -47 155 -66
170 -22 16 -63 85 -89 150 -39 95 -42 109 -28 140 7 14 15 42 19 64 9 49 36
106 51 106 7 0 19 -8 28 -18 18 -20 13 -51 -17 -111 -20 -38 -14 -51 15 -32
17 10 27 10 54 -4 27 -12 36 -24 43 -58 9 -40 10 -38 11 36 1 42 4 77 9 77 4
0 16 -19 27 -43 11 -23 27 -42 35 -42 15 0 15 6 7 89 -4 34 18 26 36 -14 23
-49 39 -51 57 -5 8 19 20 35 27 35 25 0 64 -33 83 -70 19 -37 49 -69 51 -54 7
64 6 97 -6 138 -17 55 -20 116 -6 116 11 0 71 -132 71 -158 0 -11 11 -34 24
-49 l24 -28 7 26 c17 68 -35 214 -124 349 -42 65 -63 87 -113 121 -47 32 -75
67 -83 105 -12 53 -57 178 -87 243 -18 38 -57 93 -97 136 -65 69 -68 75 -115
216 -49 146 -100 255 -139 297 -25 26 -149 108 -222 145 -27 14 -60 35 -72 46
-13 12 -77 48 -143 81 -113 57 -121 63 -144 108 -33 65 -74 105 -101 97 -11
-3 -38 -8 -60 -11 -22 -3 -50 -10 -62 -16 -32 -16 -51 -4 -55 34 -2 27 -8 34
-28 36 -14 2 -37 8 -52 13 -22 9 -36 6 -84 -17 -44 -21 -67 -42 -101 -89 -39
-54 -146 -145 -170 -145 -5 0 -24 -16 -43 -35 -47 -49 -229 -186 -262 -199
-16 -6 -28 -14 -28 -18 0 -4 -4 -8 -10 -8 -14 0 -130 -81 -130 -91 0 -32 -220
-147 -261 -136 -10 3 -38 -7 -61 -23 -48 -31 -137 -57 -162 -47 -39 15 -3 174
50 224 32 29 30 48 -7 91 -26 30 -30 41 -25 71 3 21 -1 58 -10 86 -15 52 -11
125 8 125 20 0 -1 90 -38 158 -46 85 -65 106 -113 121 -33 9 -49 8 -117 -14
-43 -14 -101 -25 -129 -25 -57 0 -95 -18 -208 -101 -4 -3 -10 -18 -13 -33 -2
-15 -11 -38 -18 -49 -54 -86 -62 -393 -14 -520 9 -24 6 -36 -17 -82 -32 -65
-36 -68 -103 -90 -82 -26 -172 -117 -245 -245 -58 -103 -61 -112 -59 -189 1
-42 4 -157 5 -256 3 -187 12 -250 46 -347 12 -32 21 -62 21 -68 0 -24 68 -163
102 -210 26 -36 37 -197 14 -206 -10 -4 -16 -18 -16 -38 0 -18 -4 -36 -9 -42
-5 -5 -13 -37 -19 -70 -6 -36 -23 -82 -41 -111 -17 -27 -32 -67 -35 -89 -22
-188 -18 -277 14 -312 21 -22 48 -86 79 -187 20 -65 20 -74 7 -120 -17 -62
-29 -272 -16 -280 6 -3 10 -30 10 -58 0 -82 -12 -187 -21 -182 -4 3 -10 -1
-13 -7 -3 -7 -4 0 -2 16 5 51 -48 86 -129 86 -24 0 -55 4 -70 10 -28 11 -103
-1 -114 -18 -3 -5 -16 -14 -28 -20 -12 -7 -23 -24 -25 -39 -3 -24 -8 -28 -35
-28 -19 0 -41 -9 -55 -22 -19 -18 -31 -21 -61 -16 -26 4 -37 2 -37 -7 0 -9
-11 -11 -38 -8 -42 6 -72 -9 -72 -36 0 -11 9 -16 28 -17 15 -1 41 -3 57 -5 17
-3 110 -5 207 -5 98 1 189 -4 203 -9 28 -11 60 2 83 33 7 9 22 17 32 17 10 0
22 5 25 10 3 6 10 10 14 10 10 0 -8 -90 -21 -107 -5 -7 -11 -22 -12 -35 -5
-43 -17 -67 -34 -67 -54 -3 -71 -9 -102 -41 -20 -19 -45 -52 -57 -72 -17 -30
-19 -37 -7 -42 8 -3 14 -14 14 -25 0 -11 6 -22 13 -25 10 -5 10 -7 0 -12 -7
-3 -13 -12 -13 -21 0 -8 -9 -26 -20 -40 -11 -14 -20 -32 -20 -40 0 -10 -10
-13 -32 -11 -25 2 -34 8 -36 24 -3 22 -39 34 -104 34 -20 0 -28 5 -28 18 0 14
2 15 10 2 9 -13 10 -13 10 0 0 13 1 13 10 0 9 -13 10 -13 10 0 0 13 1 13 10 0
7 -12 10 -12 10 -1 0 7 6 11 15 7 12 -4 15 3 15 34 l0 40 -45 0 c-28 0 -45 -4
-45 -12 0 -9 -3 -9 -12 0 -7 7 -20 12 -30 12 -14 0 -18 8 -18 36 0 36 29 81
38 56 2 -6 13 -12 24 -12 11 0 18 5 16 12 -3 7 -36 13 -88 15 -87 4 -110 13
-110 42 0 14 2 14 10 1 9 -13 10 -13 10 0 0 13 1 13 10 0 9 -13 10 -13 10 0 0
13 1 13 10 0 9 -13 10 -13 10 0 0 10 3 11 8 4 5 -9 11 -8 20 2 11 12 7 14 -20
14 -76 0 -136 -12 -131 -26 3 -8 1 -14 -4 -14 -14 0 -58 41 -56 51 2 5 -2 9
-7 9 -6 0 -10 -7 -10 -15 0 -11 -11 -15 -43 -15 -38 0 -44 3 -54 30 -7 18 -7
30 -2 30 6 0 8 4 5 9 -4 5 0 11 6 14 28 10 -4 19 -34 11 -26 -8 -34 -16 -36
-37 -3 -24 -7 -27 -42 -27 -21 0 -40 5 -42 11 -3 8 -8 7 -19 -2 -17 -16 -43
-24 -35 -10 3 5 -1 11 -9 15 -8 3 -15 12 -15 21 0 8 -4 15 -10 15 -5 0 -10 -5
-10 -10 0 -6 -14 -17 -32 -24 -27 -12 -34 -12 -46 0 -9 10 -36 13 -93 11 -43
-1 -74 0 -69 1 6 2 8 8 4 13 -3 5 5 9 17 9 18 0 20 3 11 12 -7 7 -12 20 -12
30 0 14 -8 18 -40 18 -22 0 -40 -4 -40 -10 0 -5 -18 -10 -40 -10 -22 0 -40 -4
-40 -10 0 -5 -18 -10 -40 -10 -34 0 -40 3 -40 21 0 20 -3 21 -80 14 -70 -6
-80 -5 -80 9 0 9 -5 16 -11 16 -6 0 -9 7 -5 15 4 11 -2 15 -24 15 -22 0 -28
-4 -24 -15 10 -26 -16 -16 -28 10 -6 14 -16 25 -22 25 -6 0 -21 3 -33 6 -21 6
-22 4 -13 -25 8 -30 8 -32 -13 -25 -12 4 -26 6 -32 6 -5 -1 -34 -6 -62 -10
-42 -7 -53 -6 -53 5 0 9 14 13 40 13 22 0 40 5 40 10 0 6 7 10 15 10 8 0 15 4
15 9 0 5 -7 14 -15 21 -10 9 -15 9 -15 1 0 -6 -17 -11 -40 -11 -33 0 -40 3
-40 20 0 17 -7 20 -40 20 -22 0 -40 -4 -40 -10 0 -5 -11 -10 -25 -10 -14 0
-25 4 -25 10 0 5 -10 10 -22 10 -64 0 -198 13 -198 20 0 4 -20 13 -45 19 -30
8 -43 15 -39 23 5 8 2 9 -10 5 -10 -4 -36 -10 -58 -14 -32 -5 -39 -3 -33 7 6
9 4 11 -5 5 -7 -4 -15 -2 -20 4 -11 19 -168 19 -207 1 -18 -8 -33 -18 -33 -21
0 -14 -100 -14 -105 -1 -3 9 11 12 50 12 42 0 55 3 55 15 0 18 3 17 -37 6 -25
-7 -41 -5 -70 8 -33 16 -49 17 -122 8 -69 -8 -87 -8 -110 5 -18 11 -43 14 -83
11 -49 -5 -58 -3 -58 11 0 11 -9 16 -26 16 -19 0 -25 4 -20 15 3 9 -3 19 -14
25 -14 8 -20 8 -20 0 0 -7 -8 -9 -20 -5 -11 4 -20 2 -20 -4 0 -6 5 -11 10 -11
6 0 10 -7 10 -15 0 -10 -10 -15 -32 -14 -18 0 -27 3 -20 6 24 10 13 33 -17 33
-34 0 -58 20 -67 56 -7 27 -22 32 -30 9 -4 -8 -15 -15 -25 -15 -11 0 -22 7
-25 15 -4 10 -20 15 -44 15 -32 0 -39 -4 -44 -25 -5 -19 -13 -25 -35 -25 -16
0 -31 6 -35 15 -4 11 -18 14 -48 13 l-43 -1 43 -4 c23 -2 42 -8 42 -14 0 -11
-307 -11 -335 1 -13 6 14 9 79 9 55 1 97 3 95 5 -2 2 -60 9 -129 16 -69 6
-127 15 -130 19 -14 22 -49 30 -83 20 -20 -5 -39 -14 -42 -19 -4 -6 -14 -10
-23 -10 -13 0 -14 2 -4 9 21 13 -10 21 -84 21 l-64 0 -1 38 c0 20 -3 30 -6 22
-11 -29 -34 -48 -54 -43 -10 3 -19 12 -19 19 0 8 -6 14 -14 14 -16 0 -31 34
-21 50 3 5 -5 20 -18 32 -13 13 -27 30 -30 38 -4 10 -6 8 -6 -7 -1 -31 -51
-34 -51 -3 0 14 -7 20 -24 20 -21 0 -24 5 -28 52 -7 64 -1 81 23 75 10 -3 26
1 36 8 10 7 27 15 38 18 18 4 18 5 -2 6 -20 1 -23 7 -23 39 0 26 -6 42 -20 52
-22 16 -27 66 -8 72 9 3 9 6 0 12 -7 4 -12 2 -12 -3 0 -6 -11 -11 -25 -11 -22
0 -25 -4 -25 -40 0 -39 1 -40 35 -40 38 0 40 -3 24 -48 -9 -25 -16 -31 -49
-34 -22 -2 -47 -1 -56 3 -16 5 -16 6 -1 12 22 8 22 43 0 56 -17 10 -17 10 0
11 38 0 12 68 -33 82 -11 3 -7 12 15 34 l30 29 3 -32 c5 -47 22 -41 22 7 0 29
4 40 15 40 10 0 15 10 15 33 0 41 10 77 21 77 5 0 9 -7 9 -15 0 -8 5 -15 10
-15 6 0 10 18 10 40 0 22 -4 40 -10 40 -5 0 -10 5 -10 10 0 6 7 10 15 10 8 0
15 7 15 15 0 8 -7 15 -15 15 -11 0 -15 11 -15 39 0 31 4 41 20 46 11 3 20 12
20 20 0 19 31 48 41 38 12 -12 -5 -108 -19 -105 -7 1 -12 -5 -12 -13 0 -8 7
-15 15 -15 8 0 15 5 15 10 0 6 7 10 15 10 11 0 15 -11 15 -40 0 -22 5 -40 10
-40 6 0 10 33 10 80 0 44 4 80 9 80 5 0 12 8 14 18 4 13 5 11 6 -5 2 -38 37
-28 70 21 31 45 58 56 139 56 17 0 32 3 32 8 0 4 -26 6 -57 5 -42 -2 -52 0
-38 6 11 5 37 10 57 10 25 1 44 8 58 23 18 20 23 21 41 9 15 -9 24 -10 32 -2
6 6 25 11 43 11 19 0 34 6 38 15 3 8 10 15 16 15 6 0 4 -7 -5 -16 -10 -10 -13
-20 -7 -26 10 -10 44 0 37 12 -3 4 2 13 10 20 8 7 15 18 15 24 0 12 45 36 67
36 7 0 13 -6 13 -12 1 -8 6 -6 14 5 7 9 23 17 35 17 12 0 24 6 27 14 4 11 12
13 30 6 18 -7 26 -5 32 7 8 13 33 16 151 17 114 1 144 4 151 16 8 11 4 17 -15
24 -32 13 -32 42 0 50 14 4 25 11 25 16 0 15 -21 23 -33 11 -16 -16 -42 -13
-84 10 -49 27 -48 26 -34 43 16 19 1 49 -35 73 -17 11 -21 18 -13 23 6 5 -9 5
-35 3 -31 -4 -46 -2 -46 6 0 6 -18 11 -45 11 l-45 0 -2 43 c-1 23 -1 54 0 70
1 15 -2 27 -8 27 -5 0 -10 -4 -10 -10 0 -5 -9 -10 -20 -10 -11 0 -20 5 -20 10
0 20 -24 37 -45 32 -12 -2 -28 3 -37 11 -10 10 -19 12 -31 5 -14 -7 -17 -5
-17 12 0 11 6 20 13 21 6 1 -8 7 -32 15 -30 9 -49 10 -62 3 -15 -7 -19 -6 -19
5 0 18 -58 31 -99 23 -20 -4 -31 -2 -35 8 -3 8 -16 15 -28 15 -13 0 -30 5 -38
10 -11 7 -6 10 20 11 24 0 11 5 -40 15 -81 15 -110 11 -235 -25 -38 -12 -89
-21 -112 -21 -24 0 -43 -4 -43 -10 0 -5 -9 -10 -20 -10 -11 0 -20 5 -20 11 0
6 -7 8 -16 5 -9 -4 -43 -2 -75 4 -36 7 -66 7 -76 2 -27 -14 -41 -4 -35 23 6
33 -25 46 -44 20 -12 -16 -14 -16 -14 -3 0 9 -10 20 -22 24 -31 10 -161 5
-172 -6 -13 -13 -46 -13 -46 0 0 6 7 10 15 10 16 0 20 15 7 24 -5 3 -32 -4
-61 -14 -68 -27 -152 -27 -168 -1 -10 16 -21 18 -75 15 -65 -5 -76 -1 -93 29
-8 14 -24 19 -72 21 -55 2 -63 0 -63 -16 0 -10 -7 -18 -15 -18 -8 0 -15 9 -15
20 0 25 -5 25 -32 -2 -15 -15 -23 -18 -26 -9 -2 6 5 20 17 30 12 10 21 25 22
32 0 8 5 4 11 -8 13 -27 33 -30 42 -7 4 9 5 17 4 18 -2 1 -15 8 -30 16 -19 9
-28 21 -28 37 0 31 -14 29 -29 -4 -10 -23 -10 -29 3 -39 18 -13 11 -24 -16
-24 -11 0 -18 -7 -18 -20 0 -11 -4 -20 -10 -20 -5 0 -10 14 -10 30 0 30 -1 30
-54 30 -34 0 -56 5 -59 13 -3 10 -9 10 -26 0 -30 -19 -32 -17 -25 29 l7 41
-41 -7 c-23 -3 -42 -2 -42 2 0 5 -11 7 -25 4 -14 -2 -32 1 -40 8 -12 10 -15 9
-15 -4 0 -12 -9 -16 -32 -15 -31 2 -31 2 -5 6 35 5 34 15 -3 43 -36 27 -38 37
-7 43 19 4 18 4 -5 6 -27 1 -28 -1 -28 -44 0 -34 -4 -45 -15 -45 -9 0 -18 7
-20 15 -15 48 -16 48 -27 37 -8 -8 -17 -8 -30 -1 -25 13 -23 29 5 29 20 1 21
2 4 14 -9 7 -17 20 -17 29 0 9 -5 19 -10 22 -7 4 -6 13 1 27 14 27 -3 47 -25
29 -8 -7 -20 -10 -26 -6 -6 3 -10 -3 -10 -14 0 -12 -7 -21 -15 -21 -8 0 -15 9
-15 20 0 11 -4 20 -10 20 -11 0 -13 -30 -4 -54 4 -11 13 -14 30 -10 31 8 32
-15 2 -41 -26 -22 -68 -27 -61 -8 4 9 -7 13 -35 13 -27 0 -42 5 -46 16 -9 23
-7 31 3 15 10 -16 36 -3 36 19 0 8 10 19 22 25 27 11 31 31 6 20 -55 -22 -72
-23 -78 -6 -3 10 -3 26 1 35 4 11 1 16 -10 16 -11 0 -16 -9 -16 -26 0 -32 -22
-27 -31 7 -4 13 -7 18 -8 11 -1 -16 -26 -10 -26 5 0 22 -14 24 -39 7 l-27 -17
10 27 c11 29 5 56 -13 56 -6 0 -4 5 4 11 11 8 -3 9 -52 5 l-67 -6 -12 40 c-12
41 -24 46 -81 41 -12 -2 -18 5 -18 19 0 19 4 21 25 16 19 -5 27 -1 39 21 11
20 15 23 16 11 0 -14 9 -18 39 -18 22 0 43 5 46 10 3 6 -2 10 -12 10 -11 0
-14 3 -7 8 7 4 13 31 15 60 4 51 3 52 -23 52 -14 0 -33 3 -41 6 -9 3 -16 -3
-20 -15 -3 -15 -13 -21 -32 -21 -15 0 -24 4 -20 10 3 6 13 10 20 10 8 0 22 11
31 25 13 20 25 25 55 25 28 0 39 4 39 15 0 8 9 19 21 26 34 18 7 34 -27 16
-21 -10 -36 -12 -54 -5 -16 6 -26 6 -28 -1 -7 -22 -24 -10 -20 14 4 16 1 25
-8 25 -7 0 -18 8 -23 18 -8 13 -10 14 -10 2 0 -8 6 -24 14 -34 17 -23 18 -35
5 -56 -8 -13 -11 -12 -24 5 -9 11 -16 28 -16 38 0 10 -4 16 -9 12 -5 -3 -17 2
-25 11 -12 11 -16 12 -16 2 0 -10 -2 -10 -9 1 -7 11 -11 10 -21 -5 -11 -18
-11 -18 -6 -1 3 10 6 35 6 55 1 33 2 35 12 17 7 -11 18 -26 25 -33 11 -11 13
-8 13 17 0 17 5 31 11 31 21 0 -5 23 -49 42 -40 18 -44 22 -29 33 9 7 17 23
17 37 0 13 5 29 12 36 9 9 9 12 0 12 -7 0 -12 14 -12 35 0 30 3 35 23 35 17 0
19 2 7 10 -8 5 -25 7 -37 3 -26 -6 -32 12 -8 21 10 3 15 16 13 32 -2 16 2 28
10 30 7 1 8 0 2 -3 -15 -7 -12 -23 4 -23 7 0 19 -6 26 -14 6 -8 18 -12 26 -9
9 3 14 -2 14 -16 0 -12 5 -21 10 -21 6 0 10 9 10 20 0 11 4 20 9 20 5 0 13 10
17 23 13 43 25 49 46 22 11 -14 24 -25 29 -25 13 0 11 47 -2 55 -5 4 -9 19 -7
33 3 23 -2 28 -34 37 -43 12 -59 25 -31 25 11 0 27 8 34 18 13 15 12 16 -4 3
-17 -13 -59 -12 -134 5 l-28 6 25 -16 c14 -9 33 -19 43 -22 26 -10 21 -20 -19
-32 -37 -11 -55 -6 -98 28 -14 11 -20 12 -23 3 -4 -10 -9 -10 -24 0 -17 10
-22 9 -30 -5 -12 -21 -29 -24 -29 -5 0 14 -66 37 -105 37 -14 0 -28 7 -31 15
-4 8 -18 15 -33 15 -15 0 -44 9 -66 20 -36 18 -40 19 -57 3 -21 -19 -41 -7
-43 26 -1 16 3 18 33 14 25 -5 33 -3 28 5 -4 7 -16 12 -27 12 -10 0 -19 4 -19
10 0 5 -7 7 -15 4 -8 -4 -15 -12 -15 -20 0 -8 -9 -14 -21 -14 -14 0 -19 -5
-16 -15 4 -8 2 -17 -3 -20 -6 -4 -10 1 -10 10 0 12 -5 15 -17 10 -10 -4 -28
-10 -40 -12 -13 -3 -23 -9 -23 -14 0 -15 -27 -10 -34 6 -3 8 -16 15 -28 15
-13 0 -43 7 -66 15 -49 17 -106 12 -134 -13 -14 -12 -21 -12 -33 -2 -16 13
-185 20 -185 8 0 -10 -34 -10 -43 -1 -4 3 2 12 13 20 20 14 27 33 13 33 -5 0
-22 -14 -40 -30 -20 -19 -38 -28 -48 -24 -14 6 -14 9 -3 16 10 8 9 9 -4 5 -28
-10 -266 -20 -278 -12 -8 5 -8 10 0 20 8 9 8 15 0 20 -5 3 -10 0 -10 -9 0 -12
-13 -14 -77 -9 -43 3 -82 9 -87 14 -6 5 -25 9 -43 9 -18 0 -33 5 -33 11 0 7
-15 10 -40 7 -22 -2 -40 0 -40 4 0 5 -19 9 -42 9 -25 1 -33 4 -20 6 31 6 23
25 -11 29 -45 5 -66 14 -72 34 -5 17 -9 18 -43 6 -56 -20 -132 -29 -132 -17 0
6 -21 11 -47 11 -51 0 -101 19 -53 20 24 1 24 1 6 15 -25 19 -46 19 -46 0 0
-8 -4 -15 -10 -15 -5 0 -10 5 -10 10 0 6 -18 10 -40 10 -23 0 -40 5 -40 11 0
8 -17 10 -55 6 -31 -3 -55 -2 -55 4 0 5 7 9 15 9 8 0 15 9 15 19 0 15 -9 20
-40 23 -22 2 -42 -1 -44 -7 -2 -5 -7 -6 -12 -2 -4 4 -3 17 4 27 7 11 12 26 12
34 0 11 10 13 43 10 32 -4 39 -2 27 6 -11 9 -12 13 -2 17 6 2 12 13 12 24 0
20 24 26 35 9 3 -5 15 -10 26 -10 10 0 19 -4 19 -10 0 -5 -9 -10 -20 -10 -11
0 -20 -4 -20 -9 0 -5 14 -9 31 -9 23 1 34 8 45 30 9 17 13 36 10 44 -3 9 4 16
19 20 14 3 25 10 25 15 0 19 31 8 40 -13 7 -19 9 -16 9 19 1 37 4 43 26 49 14
3 39 4 55 2 19 -3 31 0 35 9 3 9 12 12 24 8 13 -4 24 1 34 16 9 11 20 18 27
14 6 -4 17 -1 25 5 8 7 15 9 15 4 0 -5 5 -2 10 6 6 9 21 14 42 12 31 -2 32 -2
14 12 -10 9 -23 13 -27 10 -5 -3 -6 1 -3 9 3 8 1 18 -5 22 -6 3 -11 1 -11 -4
0 -6 -4 -11 -10 -11 -5 0 -10 9 -10 20 0 11 4 20 9 20 5 0 11 8 14 18 3 13 6
11 15 -10 13 -32 53 -38 86 -13 22 17 61 20 51 5 -3 -6 5 -10 19 -10 18 0 24
4 20 15 -4 8 -12 15 -20 15 -8 0 -14 6 -14 13 0 9 17 13 58 13 49 -1 57 1 54
17 -2 10 3 17 13 17 9 0 15 9 15 21 0 18 -5 21 -30 17 -31 -5 -44 9 -29 33 6
10 9 10 9 2 0 -9 18 -13 55 -13 30 0 55 4 55 9 0 6 -9 8 -20 6 -13 -2 -20 2
-20 11 0 10 12 14 40 14 22 0 40 -4 40 -10 0 -5 -7 -10 -15 -10 -19 0 -19 -27
0 -46 13 -14 15 -13 15 4 0 14 9 21 30 26 17 3 29 11 28 17 -2 6 3 14 10 16 7
3 12 -3 12 -14 1 -17 1 -17 15 1 11 15 17 16 29 7 11 -9 15 -8 20 4 3 8 12 15
20 15 8 0 24 12 35 28 14 19 23 23 29 15 5 -8 13 -9 22 -3 8 6 26 10 38 10 15
0 26 7 29 20 4 15 9 17 22 10 10 -5 23 -5 32 1 7 5 23 9 35 9 11 0 29 9 38 19
14 15 24 17 47 11 16 -5 31 -5 34 0 2 4 25 13 50 19 34 8 45 16 45 31 0 22 16
35 25 20 10 -17 44 -11 62 10 11 13 30 20 51 20 18 0 55 11 82 25 27 14 56 25
65 25 8 0 15 5 15 10 0 6 9 10 20 10 23 0 27 29 8 48 -8 8 -9 12 -1 12 6 0 13
-5 15 -12 3 -9 13 -8 39 2 19 8 37 15 41 15 3 0 10 3 14 8 4 4 -7 7 -24 7 -35
0 -41 10 -17 30 11 9 22 9 46 1 57 -20 61 -17 56 43 l-4 54 21 -25 c18 -21 28
-24 76 -21 51 4 53 5 23 12 -18 5 -33 14 -33 22 0 7 -11 21 -25 32 -29 23 -37
92 -10 92 11 0 15 -11 15 -40 0 -38 14 -54 22 -28 4 10 10 10 29 1 21 -10 22
-12 4 -12 -17 -1 -17 -3 -5 -11 35 -22 50 -12 50 34 0 26 5 46 13 49 9 4 9 6
0 6 -7 1 -13 8 -13 16 0 8 -7 15 -15 15 -8 0 -15 -9 -15 -19 0 -26 -36 -37
-55 -17 -8 8 -15 31 -15 50 0 35 -1 36 -40 36 -38 0 -40 1 -40 33 0 17 -2 41
-4 52 -2 11 -1 14 1 8 5 -15 23 -17 23 -3 0 6 18 10 40 10 22 0 40 -4 40 -10
0 -5 5 -10 10 -10 17 0 11 16 -15 44 -14 15 -25 29 -25 32 0 2 22 4 49 4 l50
0 -10 -32 c-12 -44 -12 -48 6 -48 8 0 15 -7 15 -15 0 -8 6 -15 14 -15 8 0 16
-7 20 -15 4 -12 17 -14 66 -8 52 5 60 4 60 -11 0 -10 8 -16 24 -16 29 0 43
-17 27 -33 -28 -28 9 -39 40 -11 16 14 18 14 30 -7 11 -22 12 -22 25 -4 8 10
14 13 14 7 0 -7 13 -12 29 -12 16 0 31 -6 34 -12 2 -8 8 -9 13 -4 5 5 4 11 -4
13 -14 5 -17 63 -2 63 6 0 10 -9 10 -20 0 -17 7 -20 40 -20 22 0 40 5 40 10 0
6 18 10 40 10 22 0 40 5 40 10 0 6 14 10 30 10 28 0 30 2 30 40 0 22 -4 40
-10 40 -5 0 -10 5 -10 11 0 6 9 9 20 6 10 -3 22 0 25 7 3 6 3 -1 0 -16 -4 -20
-1 -28 9 -28 7 0 19 -7 26 -15 24 -29 170 -10 170 22 0 7 7 13 15 13 25 0 17
27 -10 34 -14 4 -25 13 -25 22 0 11 6 14 22 8 33 -9 33 -11 31 -64 l-2 -48 35
1 c21 1 39 -5 45 -13 7 -13 9 -13 9 0 1 12 3 11 11 -2 17 -30 29 -20 29 22 0
40 -15 54 -26 25 -6 -14 -8 -13 -20 2 -20 27 -17 38 12 41 39 3 54 -15 55 -67
0 -25 3 -40 6 -33 7 17 23 15 23 -4 0 -11 5 -14 17 -10 9 4 20 1 24 -6 10 -15
59 8 59 29 0 7 9 13 20 13 15 0 20 7 20 28 0 28 -1 29 -47 24 -50 -4 -67 -12
-45 -19 14 -5 17 -43 2 -43 -21 0 -42 50 -36 85 9 44 23 53 30 18 6 -27 8 -28
61 -25 59 4 72 17 29 28 -22 6 -24 8 -10 16 9 5 16 17 16 26 0 11 3 13 8 6 13
-20 47 -33 63 -23 7 5 25 9 39 9 20 0 22 2 10 10 -13 9 -13 10 0 10 13 0 13 1
0 10 -13 9 -13 11 0 20 24 16 40 12 40 -10 0 -11 7 -20 15 -20 8 0 15 9 15 20
0 11 -7 20 -15 20 -8 0 -15 4 -15 9 0 5 -13 11 -29 14 -16 3 -42 17 -57 31
-24 20 -27 28 -18 43 8 13 21 17 43 15 23 -3 31 1 31 12 0 25 29 34 137 40 85
4 105 3 118 -10 9 -9 13 -24 10 -35 -4 -11 -2 -19 4 -19 6 0 11 4 11 9 0 13
34 23 54 15 21 -8 21 -24 -1 -24 -16 0 -16 -1 -1 -16 12 -13 20 -14 37 -5 13
8 27 8 37 3 21 -12 52 16 46 41 -3 13 3 17 29 18 19 1 40 1 47 0 11 -2 12 7 8
36 -8 50 4 69 33 54 15 -9 21 -9 21 -1 0 7 7 5 15 -4 16 -16 45 -12 45 7 0 5
9 2 21 -9 13 -11 19 -13 17 -5 -4 19 37 24 52 6 18 -21 30 -9 30 31 0 19 4 34
9 34 14 0 22 -30 12 -49 -6 -10 -6 -23 -1 -31 7 -12 11 -12 25 0 13 11 15 25
11 69 -5 47 -3 60 15 80 16 19 22 22 29 12 12 -21 32 -2 26 25 -4 14 -2 24 4
24 5 0 10 -9 10 -21 0 -11 4 -17 10 -14 6 4 5 16 -4 33 -26 50 15 82 56 45 17
-15 18 -15 18 0 0 21 38 23 46 2 4 -8 12 -15 20 -15 8 0 14 7 14 15 0 8 -9 15
-20 15 -14 0 -20 6 -19 23 0 12 3 16 6 10 2 -7 16 -13 29 -13 13 0 24 -4 24
-9 0 -5 9 -13 20 -16 28 -9 25 -28 -7 -42 -32 -16 -73 -17 -73 -3 0 6 -11 10
-23 10 -24 0 -57 -28 -57 -48 0 -17 19 -25 33 -14 7 6 47 13 90 17 l77 7 0
-31 c0 -29 2 -31 33 -30 23 1 26 3 10 6 -19 4 -23 11 -23 39 0 24 -4 34 -16
34 -8 0 -12 5 -9 10 5 8 11 8 20 0 10 -8 15 -8 20 0 4 7 16 10 26 7 11 -3 19
-3 19 0 0 11 -30 33 -44 33 -20 0 -21 17 -2 36 23 22 44 17 82 -21 32 -32 36
-34 51 -20 19 20 47 16 51 -8 3 -14 -4 -17 -48 -17 -32 0 -49 -4 -45 -10 4 -6
-5 -10 -19 -10 -14 0 -26 -4 -26 -10 0 -5 18 -10 40 -10 26 0 40 -4 40 -13 0
-7 13 -26 29 -41 26 -25 33 -27 58 -18 17 6 21 11 11 11 -12 1 -18 9 -18 23 0
12 -7 29 -15 38 -14 15 -14 18 0 30 10 8 15 9 15 1 0 -6 17 -11 40 -11 22 0
40 5 40 10 0 6 30 10 70 10 l70 0 0 30 c0 20 -5 30 -15 30 -17 0 -19 9 -7 28
5 7 16 10 25 6 10 -3 17 -1 17 5 0 6 7 11 15 11 8 0 15 -4 15 -10 0 -5 -7 -10
-15 -10 -18 0 -19 -31 -3 -77 15 -43 41 -43 56 0 15 42 15 45 0 50 -7 2 -5 3
4 2 9 -2 25 6 34 16 16 18 16 20 -1 39 -15 16 -15 20 -3 20 8 0 23 -9 33 -20
16 -18 17 -22 4 -35 -19 -19 -13 -105 7 -105 8 0 14 10 14 25 0 23 4 25 40 25
38 0 40 2 40 30 0 28 -2 30 -40 30 -36 0 -40 3 -40 25 0 14 4 25 9 25 5 0 9
16 8 35 -1 35 8 54 19 42 4 -4 2 -13 -5 -21 -9 -11 -8 -18 6 -31 16 -16 17
-16 25 6 11 28 26 39 56 39 27 0 29 -20 2 -27 -23 -6 -25 -14 -8 -31 8 -8 17
-8 31 -1 10 6 30 9 43 6 14 -2 22 -2 19 1 -2 3 0 11 6 18 7 8 7 14 -1 19 -5 3
-10 15 -10 26 0 12 -10 23 -25 29 -31 12 -32 25 -2 35 19 6 19 8 5 12 -10 2
-18 11 -18 20 0 13 -8 14 -40 9 -32 -5 -40 -3 -40 9 0 18 -2 18 -51 4 -30 -9
-42 -9 -54 1 -25 20 -17 31 18 25 18 -4 45 -2 60 4 22 9 27 8 27 -4 0 -16 20
-19 58 -9 25 7 30 24 7 24 -17 0 -19 18 -4 40 6 9 12 11 15 5 8 -19 76 -5 81
16 3 11 12 19 20 19 11 0 11 4 3 20 -13 24 -2 30 43 27 20 -1 30 -9 34 -24 9
-38 38 -28 53 17 13 38 15 40 54 40 30 0 37 3 26 10 -9 6 -10 10 -3 10 6 0 15
-5 18 -10 4 -6 9 -8 13 -6 4 2 5 -18 4 -44 -3 -43 0 -53 24 -77 21 -21 29 -24
32 -13 3 8 11 23 20 33 16 19 11 21 -35 17 -21 -1 -23 3 -23 40 0 33 4 43 20
47 22 6 26 33 8 51 -9 9 -7 13 8 17 10 4 27 11 37 16 22 12 38 2 18 -10 -14
-9 17 -21 57 -21 12 0 22 -5 22 -10 0 -6 15 -8 40 -4 21 4 47 3 57 -1 31 -12
93 -12 93 1 0 7 19 15 43 18 23 3 62 8 85 12 27 4 48 2 55 -5 14 -14 27 -14
27 -1 0 6 -7 10 -15 10 -20 0 -19 36 0 44 23 8 65 -15 65 -36 0 -10 6 -18 13
-18 25 0 27 13 7 46 -12 18 -19 36 -18 41 2 5 -9 22 -24 38 -32 34 -35 45 -13
45 8 0 15 5 15 11 0 8 13 9 38 4 47 -8 64 -24 21 -19 -29 4 -48 -7 -49 -27 0
-5 81 -5 133 -1 26 3 21 21 -8 28 -28 7 -24 24 6 24 12 0 19 7 19 20 0 37 29
26 65 -25 l14 -20 15 20 c43 59 45 61 46 43 0 -20 16 -24 22 -7 6 19 44 1 59
-27 l14 -26 6 23 7 24 7 -22 c4 -13 15 -23 25 -23 10 0 21 10 24 23 l7 22 9
-22 c11 -28 24 -29 60 -3 18 12 30 33 34 55 4 20 11 33 17 30 13 -9 11 -69 -3
-83 -6 -6 -9 -15 -5 -19 13 -13 35 32 42 83 5 45 9 51 25 47 24 -6 37 -43 20
-53 -14 -9 -5 -30 14 -30 6 0 18 6 24 12 8 8 39 12 85 11 46 -1 61 1 42 5 -19
5 -26 10 -18 15 7 4 23 5 37 1 21 -5 27 -2 36 21 13 33 13 45 0 45 -5 0 -10
-9 -10 -20 0 -15 -7 -20 -24 -20 -14 0 -28 -4 -31 -10 -12 -20 -25 -9 -25 22
0 25 3 29 12 20 20 -20 36 -14 36 13 0 14 6 33 15 43 8 9 22 32 31 50 20 38
33 40 48 7 18 -40 87 -30 100 15 3 10 10 5 22 -17 9 -18 21 -33 27 -33 6 0 7
5 4 10 -4 6 0 22 9 35 9 13 16 33 16 45 0 29 18 25 57 -15 26 -27 42 -35 68
-35 19 0 35 5 35 10 0 6 18 10 40 10 29 0 40 -4 40 -15 0 -8 5 -15 10 -15 6 0
10 7 10 15 0 8 -4 15 -10 15 -5 0 -10 7 -10 15 0 11 -11 15 -40 15 -22 0 -40
5 -40 10 0 6 15 8 40 4 32 -5 40 -3 40 9 0 8 9 17 21 20 17 5 19 11 14 44 -4
21 -9 46 -12 56 -7 27 22 21 35 -8 10 -21 18 -25 56 -25 26 0 51 -6 60 -15 8
-8 18 -15 22 -15 5 0 3 5 -4 12 -18 18 -15 68 3 68 18 0 19 12 4 27 -13 13 8
53 28 53 6 0 14 6 16 13 4 9 8 8 16 -3 16 -22 13 -30 -9 -30 -13 0 -20 -7 -20
-20 0 -12 7 -20 18 -20 9 0 26 -11 36 -25 10 -14 23 -25 27 -25 5 0 9 11 9 25
0 16 -6 25 -15 25 -8 0 -15 9 -15 20 0 19 7 20 99 20 99 0 126 9 102 33 -8 8
-11 8 -11 -1 0 -7 -7 -12 -15 -12 -31 0 -13 43 23 54 12 4 22 12 22 17 0 5 29
9 65 9 l65 0 1 43 c3 64 -2 111 -12 117 -4 3 -4 12 1 20 8 13 10 12 10 -2 0
-10 5 -18 10 -18 6 0 10 18 10 40 0 36 -2 40 -25 40 -14 0 -25 -5 -25 -12 0
-9 -3 -9 -12 0 -9 9 -1673 12 -7425 12 l-7413 0 0 -9010z m14620 8955 c0 -8
-4 -15 -9 -15 -5 0 -11 7 -15 15 -3 9 0 15 9 15 8 0 15 -7 15 -15z m-200 -35
c-19 -13 -30 -13 -30 0 0 6 10 10 23 10 18 0 19 -2 7 -10z m200 -12 c0 -19 -2
-20 -10 -8 -13 19 -13 30 0 30 6 0 10 -10 10 -22z m27 0 c-3 -8 -6 -5 -6 6 -1
11 2 17 5 13 3 -3 4 -12 1 -19z m63 7 c0 -8 -4 -15 -9 -15 -5 0 -11 7 -15 15
-3 9 0 15 9 15 8 0 15 -7 15 -15z m-280 -61 c0 -2 -7 -4 -15 -4 -8 0 -15 4
-15 10 0 5 7 7 15 4 8 -4 15 -8 15 -10z m237 -6 c-3 -8 -6 -5 -6 6 -1 11 2 17
5 13 3 -3 4 -12 1 -19z m-287 -4 c0 -2 -9 -4 -20 -4 -11 0 -20 4 -20 9 0 5 9
7 20 4 11 -3 20 -7 20 -9z m163 -14 c-3 -11 -7 -20 -9 -20 -2 0 -4 9 -4 20 0
11 4 20 9 20 5 0 7 -9 4 -20z m172 -21 c10 -15 -1 -23 -20 -15 -9 3 -13 10
-10 16 8 13 22 13 30 -1z m-228 -31 c-3 -7 -5 -2 -5 12 0 14 2 19 5 13 2 -7 2
-19 0 -25z m-277 2 c0 -5 -4 -10 -10 -10 -5 0 -10 5 -10 10 0 6 5 10 10 10 6
0 10 -4 10 -10z m14115 0 c3 -5 -1 -10 -10 -10 -9 0 -13 5 -10 10 3 6 8 10 10
10 2 0 7 -4 10 -10z m-13898 -16 c-3 -3 -12 -4 -19 -1 -8 3 -5 6 6 6 11 1 17
-2 13 -5z m106 -1 c-7 -2 -19 -2 -25 0 -7 3 -2 5 12 5 14 0 19 -2 13 -5z m57
-33 c0 -36 -2 -40 -25 -40 -14 0 -25 5 -25 10 0 6 5 10 10 10 6 0 10 14 10 30
0 20 5 30 15 30 11 0 15 -11 15 -40z m13790 33 c0 -5 -5 -15 -10 -23 -9 -13
-11 -13 -20 0 -15 22 -12 30 10 30 11 0 20 -3 20 -7z m-13961 -76 c-11 -11
-52 -15 -69 -7 -5 3 46 17 68 19 10 1 10 -2 1 -12z m-182 -59 c-2 -13 -4 -3
-4 22 0 25 2 35 4 23 2 -13 2 -33 0 -45z m128 -8 c4 -6 -6 -10 -22 -10 -22 0
-25 2 -13 10 19 12 27 12 35 0z m-209 -47 c-11 -11 -17 4 -9 23 7 18 8 18 11
1 2 -10 1 -21 -2 -24z m-36 -33 c0 -5 -4 -10 -10 -10 -5 0 -10 -7 -10 -15 0
-8 -4 -15 -10 -15 -14 0 -12 37 3 43 20 9 27 8 27 -3z m110 -10 c26 -16 4 -21
-26 -5 -23 12 -25 15 -9 15 11 0 27 -4 35 -10z m-253 -67 c-3 -10 -5 -2 -5 17
0 19 2 27 5 18 2 -10 2 -26 0 -35z m-608 -14 c-8 -5 -18 -9 -24 -9 -5 0 -4 4
4 9 8 6 11 17 6 32 l-7 24 17 -24 c15 -19 15 -25 4 -32z m-59 11 c0 -5 -5 -10
-11 -10 -5 0 -7 5 -4 10 3 6 8 10 11 10 2 0 4 -4 4 -10z m608 -12 c3 -15 -1
-15 -27 -5 -33 12 -31 30 2 25 12 -2 23 -11 25 -20z m-165 5 c-7 -2 -19 -2
-25 0 -7 3 -2 5 12 5 14 0 19 -2 13 -5z m-236 -45 c-3 -8 -6 -5 -6 6 -1 11 2
17 5 13 3 -3 4 -12 1 -19z m15488 -37 c-9 -16 -25 -3 -18 15 4 10 9 12 15 6 6
-6 7 -15 3 -21z m-15582 -18 c-13 -2 -33 -2 -45 0 -13 2 -3 4 22 4 25 0 35 -2
23 -4z m131 -22 c3 -5 -1 -12 -10 -15 -22 -9 -24 -8 -24 9 0 16 25 21 34 6z
m-314 -27 c0 -8 -4 -14 -10 -14 -5 0 -10 9 -10 21 0 11 5 17 10 14 6 -3 10
-13 10 -21z m15855 6 c-3 -5 -12 -10 -20 -10 -8 0 -17 5 -20 10 -4 6 5 10 20
10 15 0 24 -4 20 -10z m-16078 -87 c2 -6 -5 -13 -17 -16 -12 -3 -20 0 -20 7 0
26 29 33 37 9z m123 -17 c0 -21 -13 -26 -27 -11 -10 11 -10 15 0 18 21 9 27 7
27 -7z m15897 -13 c-3 -3 -11 -2 -17 2 -9 6 -9 10 1 16 14 8 27 -7 16 -18z
m-15757 7 c0 -5 -2 -10 -4 -10 -3 0 -8 5 -11 10 -3 6 -1 10 4 10 6 0 11 -4 11
-10z m15760 -77 c-1 -27 -1 -27 -15 -9 -14 19 -12 36 6 36 5 0 9 -12 9 -27z
m-16320 -33 c0 -5 -4 -10 -10 -10 -5 0 -10 5 -10 10 0 6 5 10 10 10 6 0 10 -4
10 -10z m16362 -52 c-9 -9 -15 -9 -24 0 -9 9 -7 12 12 12 19 0 21 -3 12 -12z
m-16282 -38 c0 -5 -7 -10 -16 -10 -8 0 -12 5 -9 10 3 6 10 10 16 10 5 0 9 -4
9 -10z m-162 -32 c-2 -18 -9 -23 -37 -23 -19 0 -36 6 -38 13 -3 7 5 12 21 12
13 0 28 5 31 10 11 18 26 10 23 -12z m16427 12 c3 -5 -1 -10 -9 -10 -9 0 -16
5 -16 10 0 6 4 10 9 10 6 0 13 -4 16 -10z m-17074 -113 c-10 -9 -11 -8 -5 6 3
10 9 15 12 12 3 -3 0 -11 -7 -18z m-17 -42 c3 -9 0 -15 -9 -15 -16 0 -27 14
-18 24 10 10 21 7 27 -9z m-234 -54 c0 -5 3 -16 6 -25 4 -11 1 -16 -10 -16
-10 0 -16 9 -16 25 0 14 5 25 10 25 6 0 10 -4 10 -9z m-90 -31 c0 -5 -4 -10
-10 -10 -5 0 -10 5 -10 10 0 6 5 10 10 10 6 0 10 -4 10 -10z m-346 -22 c-3 -4
-9 -8 -15 -8 -5 0 -9 4 -9 8 0 5 7 9 15 9 8 0 12 -4 9 -9z m536 -67 c0 -5 3
-16 6 -25 4 -10 1 -16 -9 -16 -8 0 -17 11 -19 25 -4 17 -1 25 8 25 8 0 14 -4
14 -9z m17490 -21 c0 -11 -7 -20 -15 -20 -15 0 -21 21 -8 33 12 13 23 7 23
-13z m-17810 -64 c0 -3 -4 -8 -10 -11 -5 -3 -10 -1 -10 4 0 6 5 11 10 11 6 0
10 -2 10 -4z m237 -33 c-3 -10 -5 -4 -5 12 0 17 2 24 5 18 2 -7 2 -21 0 -30z
m-71 -38 c-5 -20 -13 -25 -37 -25 -18 0 -28 4 -24 10 3 6 -1 10 -9 10 -9 0
-16 5 -16 10 0 6 18 10 40 10 24 0 40 5 40 12 0 6 3 9 6 5 4 -3 4 -18 0 -32z
m-836 -30 c22 -11 30 -23 30 -41 0 -20 -4 -25 -16 -20 -11 4 -18 -1 -21 -14
-3 -12 -12 -20 -22 -18 -23 5 -29 108 -6 108 3 0 19 -7 35 -15z m190 -15 c0
-5 -5 -10 -11 -10 -5 0 -7 5 -4 10 3 6 8 10 11 10 2 0 4 -4 4 -10z m342 -22
c-9 -9 -15 -9 -24 0 -9 9 -7 12 12 12 19 0 21 -3 12 -12z m-642 -52 c0 -19 -4
-38 -10 -41 -6 -4 -10 10 -10 34 0 23 5 41 10 41 6 0 10 -15 10 -34z m-40 -6
c0 -4 -7 -10 -15 -14 -10 -4 -15 1 -15 14 0 13 5 18 15 14 8 -4 15 -10 15 -14z
m140 -34 c0 -14 -4 -28 -10 -31 -5 -3 -10 1 -10 9 0 9 -5 16 -11 16 -8 0 -8 5
1 15 18 22 30 18 30 -9z m-93 -38 c-3 -7 -5 -2 -5 12 0 14 2 19 5 13 2 -7 2
-19 0 -25z m-117 -98 c0 -4 -6 -13 -14 -19 -17 -14 -31 2 -22 24 5 15 36 10
36 -5z m34 -35 c-4 -8 -10 -15 -15 -15 -5 0 -9 7 -9 15 0 8 7 15 15 15 9 0 12
-6 9 -15z m-194 -3 c0 -5 -6 -16 -12 -25 -9 -12 -17 -14 -28 -7 -10 6 -11 10
-2 10 6 0 12 7 12 15 0 8 7 15 15 15 8 0 15 -4 15 -8z m250 -2 c0 -5 -4 -10
-10 -10 -5 0 -10 5 -10 10 0 6 5 10 10 10 6 0 10 -4 10 -10z m-313 -42 c-3 -8
-6 -5 -6 6 -1 11 2 17 5 13 3 -3 4 -12 1 -19z m-17 -14 c0 -4 -8 -13 -17 -20
-21 -16 -63 -18 -63 -4 0 6 9 10 19 10 11 0 23 5 26 10 7 11 35 14 35 4z m37
-20 c-3 -3 -12 -4 -19 -1 -8 3 -5 6 6 6 11 1 17 -2 13 -5z m-3597 -34 c0 -5
-4 -10 -10 -10 -5 0 -10 5 -10 10 0 6 5 10 10 10 6 0 10 -4 10 -10z m-63 -22
c-3 -8 -6 -5 -6 6 -1 11 2 17 5 13 3 -3 4 -12 1 -19z m2218 -28 c3 -5 17 -10
31 -10 15 0 24 -6 24 -16 0 -15 2 -15 25 0 27 18 55 21 55 6 0 -5 18 -10 40
-10 29 0 40 -4 40 -15 0 -11 -11 -15 -40 -15 -29 0 -40 -4 -40 -15 0 -11 -11
-15 -40 -15 -22 0 -40 5 -40 10 0 6 -18 10 -40 10 -43 0 -53 -17 -25 -40 8 -7
15 -19 15 -26 0 -8 10 -14 25 -14 15 0 25 -6 25 -15 0 -8 8 -19 19 -24 31 -17
34 -41 6 -41 -16 0 -25 6 -25 15 0 11 -11 15 -40 15 l-40 0 0 49 c0 34 -4 51
-15 55 -17 6 -19 2 -6 -22 4 -9 5 -39 1 -67 -7 -50 -7 -50 -9 -10 -1 22 -5 46
-10 54 -10 16 -31 6 -31 -15 0 -20 -10 -18 -31 7 -10 12 -24 18 -31 15 -7 -4
-24 -13 -38 -21 -28 -17 -150 -21 -150 -5 0 5 -14 17 -31 26 -19 9 -28 19 -22
25 16 16 154 39 232 39 13 0 30 8 37 19 7 10 31 21 54 25 22 3 43 13 46 21 7
17 20 19 29 5z m-2282 -17 c-13 -2 -33 -2 -45 0 -13 2 -3 4 22 4 25 0 35 -2
23 -4z m2670 -32 c4 -15 -2 -22 -24 -30 -35 -12 -37 -27 -7 -37 l23 -7 -23 -8
c-12 -5 -22 -15 -22 -24 0 -19 -7 -19 -25 -1 -12 12 -11 15 5 19 26 7 25 21
-2 35 -19 9 -20 11 -5 11 10 1 15 6 12 11 -4 6 -3 10 2 9 33 -6 51 2 46 21 -3
11 -1 20 5 20 5 0 12 -9 15 -19z m-599 -6 c-4 -8 -18 -15 -33 -15 -25 1 -25 1
-7 15 26 19 47 19 40 0z m946 -31 c0 -8 -4 -12 -10 -9 -5 3 -10 10 -10 16 0 5
5 9 10 9 6 0 10 -7 10 -16z m-1240 -46 c0 -19 -2 -20 -10 -8 -13 19 -13 30 0
30 6 0 10 -10 10 -22z m980 -9 c0 -6 -4 -7 -10 -4 -5 3 -10 11 -10 16 0 6 5 7
10 4 6 -3 10 -11 10 -16z m-1218 -35 c-3 -19 -10 -24 -34 -24 l-30 0 29 33
c30 35 43 32 35 -9z m78 36 c0 -5 -4 -10 -10 -10 -5 0 -10 5 -10 10 0 6 5 10
10 10 6 0 10 -4 10 -10z m837 -22 c-21 -13 -37 -9 -37 11 0 17 3 18 24 8 16
-8 21 -14 13 -19z m393 22 c0 -5 -7 -10 -15 -10 -8 0 -15 5 -15 10 0 6 7 10
15 10 8 0 15 -4 15 -10z m84 -5 c23 -17 13 -34 -11 -19 -19 12 -29 34 -16 34
4 0 17 -7 27 -15z m-1227 -27 c-3 -8 -6 -5 -6 6 -1 11 2 17 5 13 3 -3 4 -12 1
-19z m-567 -25 c0 -11 -4 -11 -20 -1 -11 7 -20 19 -20 25 0 11 4 11 20 1 11
-7 20 -19 20 -25z m-100 23 c0 -11 -19 -15 -25 -6 -3 5 1 10 9 10 9 0 16 -2
16 -4z m1960 -42 c0 -8 -4 -14 -10 -14 -5 0 -10 9 -10 21 0 11 5 17 10 14 6
-3 10 -13 10 -21z m-2093 -6 c-3 -8 -6 -5 -6 6 -1 11 2 17 5 13 3 -3 4 -12 1
-19z m1747 7 c7 -18 53 -20 58 -3 4 10 10 10 29 1 13 -6 18 -12 12 -12 -7 -1
-13 -10 -13 -21 0 -16 -7 -20 -35 -20 -39 0 -75 25 -75 52 0 22 16 24 24 3z
m-1470 -11 c9 -24 7 -28 -9 -14 -17 14 -20 30 -6 30 5 0 12 -7 15 -16z m1271
10 c14 -6 10 -10 -15 -21 -38 -15 -48 -11 -29 11 16 17 21 18 44 10z m-1401
-19 c8 -8 18 -15 23 -15 14 0 63 -24 63 -32 0 -3 -13 -12 -30 -20 -27 -11 -30
-18 -30 -55 0 -24 -4 -43 -10 -43 -5 0 -10 7 -10 15 0 11 -11 15 -38 15 -30 0
-41 5 -51 24 -7 13 -11 32 -9 42 3 15 11 18 41 16 35 -3 37 -2 37 27 0 20 -6
31 -17 34 -16 4 -16 5 -1 6 9 0 23 -6 32 -14z m1816 -5 c0 -5 -4 -10 -10 -10
-5 0 -10 5 -10 10 0 6 5 10 10 10 6 0 10 -4 10 -10z m-2023 -16 c-3 -3 -12 -4
-19 -1 -8 3 -5 6 6 6 11 1 17 -2 13 -5z m-107 -19 c0 -8 -9 -15 -20 -15 -22 0
-27 15 -7 23 21 9 27 7 27 -8z m50 -10 c0 -20 -5 -25 -25 -25 -31 0 -32 13 -2
33 29 21 27 21 27 -8z m21275 15 c-3 -5 -15 -10 -26 -10 -10 0 -19 5 -19 10 0
6 12 10 26 10 14 0 23 -4 19 -10z m-21220 -40 c3 -5 -1 -10 -9 -10 -9 0 -16 5
-16 10 0 6 4 10 9 10 6 0 13 -4 16 -10z m-173 -108 c8 -9 8 -16 0 -24 -9 -9
-12 -7 -12 10 0 16 -4 20 -17 16 -15 -5 -15 -4 -3 5 12 8 11 11 -9 19 l-24 9
24 24 24 24 3 -35 c2 -19 8 -41 14 -48z m68 63 c0 -9 -9 -15 -22 -15 -22 1
-23 1 -4 15 25 19 26 19 26 0z m38 -38 c58 -2 34 -17 -28 -17 -47 0 -58 3 -54
14 4 9 14 13 27 9 12 -3 37 -6 55 -6z m122 3 c0 -5 -7 -7 -15 -4 -8 4 -15 8
-15 10 0 2 7 4 15 4 8 0 15 -4 15 -10z m-320 -36 c0 -11 -5 -14 -17 -9 -10 4
-24 8 -30 8 -28 1 -11 17 17 17 21 0 30 -5 30 -16z m21585 -121 c14 -33 11
-63 -6 -63 -5 0 -9 13 -9 28 0 30 -16 52 -38 52 -9 0 -12 -6 -8 -15 4 -13 2
-14 -14 -5 -24 13 -25 28 -4 51 15 17 18 17 41 2 13 -9 30 -31 38 -50z
m-21720 48 c3 -5 1 -12 -5 -16 -5 -3 -10 1 -10 9 0 18 6 21 15 7z m-1139 -148
c7 -10 14 -25 14 -35 0 -9 6 -19 13 -22 6 -3 2 -3 -10 0 -20 5 -23 1 -23 -25
0 -24 4 -31 20 -31 11 0 20 -7 20 -15 0 -9 -9 -15 -25 -15 -22 0 -25 4 -25 40
0 29 -4 40 -16 40 -8 0 -20 14 -25 30 -6 17 -15 30 -20 30 -5 0 -9 5 -9 10 0
18 72 11 86 -7z m1918 -20 c3 -10 9 -24 12 -30 4 -8 -2 -13 -15 -13 -17 0 -21
6 -21 30 0 33 14 40 24 13z m20956 -53 c0 -5 -4 -10 -10 -10 -5 0 -10 5 -10
10 0 6 5 10 10 10 6 0 10 -4 10 -10z m-22884 -147 c-11 -11 -19 6 -11 24 8 17
8 17 12 0 3 -10 2 -21 -1 -24z m23068 -129 c18 -7 10 -34 -10 -34 -8 0 -14 9
-14 20 0 22 1 23 24 14z m-21914 -99 c0 -8 -4 -15 -10 -15 -5 0 -10 7 -10 15
0 8 5 15 10 15 6 0 10 -7 10 -15z m-60 -35 c0 -5 -4 -10 -9 -10 -6 0 -13 5
-16 10 -3 6 1 10 9 10 9 0 16 -4 16 -10z m-54 -57 c-10 -10 -19 5 -10 18 6 11
8 11 12 0 2 -7 1 -15 -2 -18z m22312 0 c-10 -2 -26 -2 -35 0 -10 3 -2 5 17 5
19 0 27 -2 18 -5z m-22408 -68 c0 -8 -7 -15 -15 -15 -8 0 -15 7 -15 15 0 8 7
15 15 15 8 0 15 -7 15 -15z m-100 -19 c0 -3 -4 -8 -10 -11 -5 -3 -10 -1 -10 4
0 6 5 11 10 11 6 0 10 -2 10 -4z m22540 0 c0 -3 -4 -8 -10 -11 -5 -3 -10 -1
-10 4 0 6 5 11 10 11 6 0 10 -2 10 -4z m-23136 -192 c4 -10 1 -14 -6 -12 -15
5 -23 28 -10 28 5 0 13 -7 16 -16z m56 -25 c0 -11 -4 -17 -10 -14 -5 3 -10 13
-10 21 0 8 5 14 10 14 6 0 10 -9 10 -21z m23140 -64 c0 -8 -4 -15 -9 -15 -13
0 -22 16 -14 24 11 11 23 6 23 -9z m-23100 -21 c0 -8 -4 -14 -10 -14 -5 0 -10
9 -10 21 0 11 5 17 10 14 6 -3 10 -13 10 -21z m23000 -119 c0 -28 -15 -34 -24
-9 -10 25 -7 34 9 34 9 0 15 -9 15 -25z m-22670 -10 c-7 -8 -16 -15 -21 -15
-5 0 -9 7 -9 15 0 9 9 15 21 15 18 0 19 -2 9 -15z m300 -59 c-6 -5 -16 -4 -25
4 -12 10 -13 15 -4 21 15 9 40 -13 29 -25z m11558 -4 c2 -7 -3 -12 -12 -12 -9
0 -16 7 -16 16 0 17 22 14 28 -4z m28 -107 c34 -27 69 -47 92 -50 75 -13 132
-38 138 -62 4 -13 22 -30 42 -40 48 -24 51 -50 14 -127 -17 -33 -33 -69 -36
-79 -3 -10 -33 -34 -66 -55 -33 -20 -63 -45 -66 -55 -3 -11 5 -30 21 -49 23
-27 26 -38 21 -72 -4 -23 -12 -56 -19 -74 -11 -31 -10 -36 12 -53 13 -10 30
-19 38 -19 8 0 41 -18 73 -40 92 -63 93 -103 1 -144 -32 -14 -68 -26 -79 -26
-40 0 -130 -41 -165 -75 -26 -25 -42 -55 -60 -112 -55 -174 -66 -227 -88 -443
-21 -209 -23 -289 -9 -406 8 -75 19 -123 66 -289 9 -33 18 -83 19 -111 1 -28
8 -60 14 -72 8 -14 9 -59 5 -139 -6 -111 -16 -167 -99 -553 -13 -64 -38 -148
-54 -187 -16 -39 -32 -85 -36 -103 -5 -23 -49 -75 -161 -188 -85 -86 -166
-170 -179 -185 l-23 -29 -12 23 c-11 19 -10 21 5 15 15 -5 16 -4 5 9 -10 12
-10 18 0 30 7 9 19 14 25 11 16 -6 42 11 32 21 -5 4 -12 1 -17 -7 -6 -8 -10
-10 -10 -5 0 6 5 16 10 21 6 6 8 18 5 26 -5 13 -31 17 -148 20 -78 1 -143 0
-145 -4 -2 -5 -10 -8 -17 -8 -8 0 -29 -6 -47 -14 -18 -8 -53 -19 -78 -26 -79
-21 -90 -29 -42 -29 26 -1 41 -5 37 -11 -3 -5 -17 -10 -31 -10 -13 0 -24 -4
-24 -10 0 -5 -6 -10 -13 -10 -9 0 -11 -12 -9 -40 2 -22 9 -40 16 -40 6 0 -4
-9 -22 -20 -32 -19 -32 -21 -16 -45 13 -20 14 -39 9 -100 -5 -53 -4 -75 4 -75
6 0 11 -13 11 -30 0 -16 5 -30 10 -30 6 0 10 7 10 15 0 11 11 15 39 15 35 0
38 -2 33 -25 -2 -15 0 -25 7 -25 6 0 10 6 8 12 -1 7 9 14 23 17 l25 4 -25 7
c-24 7 -23 7 12 14 23 5 38 15 41 27 3 10 10 19 16 19 23 0 10 -28 -29 -63
-22 -19 -40 -40 -40 -45 0 -5 -17 -25 -38 -44 l-37 -34 -101 2 c-56 1 -107 4
-113 8 -8 6 -10 41 -5 129 9 154 7 239 -4 246 -9 6 -1 89 14 141 4 14 8 59 9
100 2 71 3 75 26 78 31 4 112 41 122 56 8 13 -1 82 -15 109 -15 29 -38 176
-44 282 -6 120 -20 229 -38 309 -10 42 -11 67 -4 85 14 37 2 159 -19 203 -10
20 -32 51 -48 70 -83 92 -88 113 -61 245 23 107 40 402 31 538 -4 66 -9 145
-11 175 -7 109 -23 248 -44 388 -12 79 -19 149 -16 157 9 24 66 53 118 60 53
8 78 25 78 56 0 11 17 30 40 47 22 15 86 61 143 103 56 42 120 85 142 97 22
11 49 29 60 39 11 10 38 32 60 48 45 32 133 120 275 271 52 56 104 104 116
108 11 3 45 32 74 64 46 49 127 108 153 111 5 1 33 -19 63 -44z m10620 -12
c-10 -10 -19 5 -10 18 6 11 8 11 12 0 2 -7 1 -15 -2 -18z m-20081 -100 c-11
-3 -28 -12 -37 -21 -17 -14 -18 -13 -18 6 0 19 5 22 38 21 21 -1 28 -3 17 -6z
m20022 -55 c-3 -8 -6 -5 -6 6 -1 11 2 17 5 13 3 -3 4 -12 1 -19z m-20072 -27
c7 -12 -12 -24 -25 -16 -11 7 -4 25 10 25 5 0 11 -4 15 -9z m-185 -71 c0 -5
-5 -10 -11 -10 -8 0 -7 -5 1 -15 19 -23 3 -31 -19 -11 -11 10 -24 15 -30 12
-5 -4 -13 -1 -17 5 -4 7 -3 9 4 5 6 -3 17 0 24 8 15 17 48 21 48 6z m20300 5
c0 -3 -9 -15 -20 -27 -15 -16 -20 -18 -20 -7 0 8 5 20 12 27 12 12 28 16 28 7z
m20 -86 c0 -5 -7 -9 -15 -9 -15 0 -20 12 -9 23 8 8 24 -1 24 -14z m-20316 -25
c3 -9 -1 -14 -14 -14 -21 0 -34 15 -25 30 7 12 32 2 39 -16z m81 -4 c-3 -5
-17 -10 -31 -10 -14 0 -22 4 -19 10 3 6 17 10 31 10 14 0 22 -4 19 -10z m1
-41 c3 -5 -8 -9 -25 -9 -28 0 -46 11 -35 22 7 7 53 -3 60 -13z m20170 -16
c-11 -11 -17 4 -9 23 7 18 8 18 11 1 2 -10 1 -21 -2 -24z m-20296 6 c0 -5 -7
-9 -15 -9 -9 0 -12 6 -9 15 6 15 24 11 24 -6z m100 -179 c0 -5 -4 -10 -10 -10
-5 0 -10 5 -10 10 0 6 5 10 10 10 6 0 10 -4 10 -10z m19932 -132 c-9 -9 -15
-9 -24 0 -9 9 -7 12 12 12 19 0 21 -3 12 -12z m-19732 -33 c0 -9 -9 -15 -22
-15 -22 1 -23 1 -4 15 25 19 26 19 26 0z m19905 -135 c3 -5 3 -15 -1 -21 -6
-11 -23 6 -24 24 0 10 18 9 25 -3z m-135 -50 c0 -13 -7 -20 -20 -20 -25 0 -25
9 -2 26 22 17 22 17 22 -6z m-310 -153 c10 -4 8 -6 -7 -6 -16 -1 -23 5 -23 17
0 10 3 13 8 6 4 -6 14 -14 22 -17z m-141 -52 c10 -10 -7 -12 -64 -7 -44 4 -55
7 -40 13 19 8 94 3 104 -6z m-119 -30 c0 -8 -4 -15 -9 -15 -13 0 -22 16 -14
24 11 11 23 6 23 -9z m-18692 -113 c2 -7 -7 -12 -23 -12 -24 0 -26 2 -15 15
14 17 31 16 38 -3z m18239 -18 c-3 -3 -12 -4 -19 -1 -8 3 -5 6 6 6 11 1 17 -2
13 -5z m-82 -84 c-3 -5 -10 -10 -16 -10 -5 0 -9 5 -9 10 0 6 7 10 16 10 8 0
12 -4 9 -10z m-325 -9 c0 -6 -4 -13 -10 -16 -5 -3 -10 1 -10 9 0 9 5 16 10 16
6 0 10 -4 10 -9z m250 -1 c0 -5 -7 -10 -15 -10 -8 0 -15 5 -15 10 0 6 7 10 15
10 8 0 15 -4 15 -10z m-225 -29 c3 -5 1 -12 -5 -16 -5 -3 -10 1 -10 9 0 18 6
21 15 7z m-17332 -38 c-7 -2 -19 -2 -25 0 -7 3 -2 5 12 5 14 0 19 -2 13 -5z
m347 -37 c0 -3 -4 -8 -10 -11 -5 -3 -10 -1 -10 4 0 6 5 11 10 11 6 0 10 -2 10
-4z m9460 -25 c14 -28 12 -61 -4 -61 -14 0 -26 29 -26 63 0 23 17 22 30 -2z
m-160 -37 c0 -8 -4 -12 -10 -9 -5 3 -10 10 -10 16 0 5 5 9 10 9 6 0 10 -7 10
-16z m7400 -24 c0 -5 -6 -10 -14 -10 -8 0 -18 5 -21 10 -3 6 3 10 14 10 12 0
21 -4 21 -10z m-15175 -40 c-3 -5 -10 -10 -16 -10 -5 0 -9 5 -9 10 0 6 7 10
16 10 8 0 12 -4 9 -10z m145 -115 c0 -8 -4 -15 -10 -15 -5 0 -10 7 -10 15 0 8
5 15 10 15 6 0 10 -7 10 -15z m6525 -51 c0 -10 -8 -20 -17 -22 -18 -3 -26 27
-11 42 12 11 28 0 28 -20z m8041 -82 c-4 -3 -11 0 -16 8 -15 24 -11 33 6 15 9
-9 13 -19 10 -23z m-489 -164 c-3 -8 -6 -5 -6 6 -1 11 2 17 5 13 3 -3 4 -12 1
-19z m-727 -287 c0 -5 -18 -11 -40 -13 -42 -4 -56 8 -17 15 40 8 57 7 57 -2z
m-13852 -8 c-10 -2 -26 -2 -35 0 -10 3 -2 5 17 5 19 0 27 -2 18 -5z m-358
-327 c0 -2 -7 -9 -15 -16 -12 -10 -15 -10 -15 4 0 9 7 16 15 16 8 0 15 -2 15
-4z m-30 -171 c0 -8 -2 -15 -4 -15 -2 0 -6 7 -10 15 -3 8 -1 15 4 15 6 0 10
-7 10 -15z m12040 -409 c0 -3 -4 -8 -10 -11 -5 -3 -10 -1 -10 4 0 6 5 11 10
11 6 0 10 -2 10 -4z m-10760 -146 c0 -5 -2 -10 -4 -10 -3 0 -8 5 -11 10 -3 6
-1 10 4 10 6 0 11 -4 11 -10z m96 -66 c-3 -9 -6 -18 -6 -20 0 -3 -6 1 -14 8
-10 9 -11 15 -2 20 19 13 28 9 22 -8z m9284 -9 c0 -12 -19 -12 -23 0 -4 9 -1
12 9 8 7 -3 14 -7 14 -8z m-994 -45 c9 0 13 -4 10 -8 -4 -6 -26 -7 -68 -3 -5
1 -8 6 -8 12 0 5 4 8 8 5 4 -2 14 -1 22 4 9 6 16 6 18 0 2 -6 10 -10 18 -10z
m-8003 3 c-7 -2 -21 -2 -30 0 -10 3 -4 5 12 5 17 0 24 -2 18 -5z m41 -25 c-3
-4 -9 -8 -15 -8 -5 0 -9 4 -9 8 0 5 7 9 15 9 8 0 12 -4 9 -9z m66 6 c0 -8 -19
-13 -24 -6 -3 5 1 9 9 9 8 0 15 -2 15 -3z m3834 -46 c-8 -25 11 -55 41 -62 30
-8 31 -22 11 -145 -8 -46 -13 -134 -12 -195 3 -116 0 -140 -15 -130 -5 3 -9
-2 -9 -11 0 -9 5 -13 10 -10 6 3 10 -5 10 -19 0 -14 4 -27 9 -30 12 -8 23 -73
16 -95 -4 -14 -24 -21 -88 -31 -75 -11 -92 -10 -197 9 -159 31 -153 28 -145
59 9 34 12 50 19 97 3 20 11 45 16 55 6 10 10 46 10 80 0 34 4 59 8 56 4 -2 8
3 9 12 3 60 35 173 63 224 6 10 10 24 10 32 0 7 9 25 20 39 11 14 20 34 20 45
0 38 24 51 88 45 46 -4 60 -2 72 12 13 16 15 16 27 -1 7 -10 11 -26 7 -36z
m-3660 33 c3 -5 -1 -14 -9 -21 -13 -10 -15 -9 -15 9 0 21 14 28 24 12z m7653
3 c-3 -3 -12 -4 -19 -1 -8 3 -5 6 6 6 11 1 17 -2 13 -5z m-6584 -171 c-7 -2
-19 -2 -25 0 -7 3 -2 5 12 5 14 0 19 -2 13 -5z m3634 -25 c-3 -7 -5 -2 -5 12
0 14 2 19 5 13 2 -7 2 -19 0 -25z m2790 26 c-3 -3 -12 -4 -19 -1 -8 3 -5 6 6
6 11 1 17 -2 13 -5z m-6377 -24 c0 -5 -4 -10 -10 -10 -5 0 -10 5 -10 10 0 6 5
10 10 10 6 0 10 -4 10 -10z m6175 -11 c4 -6 13 -8 21 -5 10 4 14 -3 14 -23 0
-20 8 -34 25 -45 30 -20 35 -42 6 -26 -25 13 -81 69 -81 81 0 5 -4 9 -10 9 -5
0 -10 5 -10 10 0 13 27 13 35 -1z m-2945 -81 c0 -27 -4 -38 -15 -38 -11 0 -15
11 -15 38 0 28 4 39 15 39 11 0 15 -11 15 -39z m364 -32 c-17 -27 -36 -35 -31
-14 4 19 41 60 45 49 2 -5 -4 -21 -14 -35z m-1771 -27 c-4 -16 -8 -17 -14 -7
-13 19 -11 28 5 28 9 0 12 -7 9 -21z m1715 -18 c10 -6 4 -16 -23 -39 -42 -37
-58 -42 -27 -9 12 13 22 31 22 40 0 19 8 21 28 8z m-2198 -31 c0 -5 -20 -10
-44 -10 -25 0 -48 5 -51 10 -4 6 13 10 44 10 28 0 51 -4 51 -10z m434 -14 c-3
-9 -12 -12 -22 -9 -15 6 -9 11 25 22 1 1 0 -5 -3 -13z m-604 -6 c0 -5 -4 -10
-10 -10 -5 0 -10 5 -10 10 0 6 5 10 10 10 6 0 10 -4 10 -10z m630 -39 c0 -5
-6 -21 -14 -36 -10 -19 -16 -23 -22 -14 -4 7 -2 15 4 17 7 2 12 12 12 23 0 10
5 19 10 19 6 0 10 -4 10 -9z m1625 -44 c-24 -26 -47 -42 -50 -38 -9 15 5 38
31 49 13 7 24 16 24 21 0 8 30 20 37 16 2 -1 -17 -22 -42 -48z m-1678 18 c-4
-8 -14 -14 -24 -14 -17 1 -17 2 0 6 9 2 17 12 17 20 0 9 3 14 6 10 4 -3 4 -13
1 -22z m-407 5 c0 -5 -7 -10 -15 -10 -8 0 -15 5 -15 10 0 6 7 10 15 10 8 0 15
-4 15 -10z m1940 -84 c0 -8 -6 -16 -14 -19 -10 -4 -12 0 -9 14 6 22 23 26 23
5z m2921 -830 c51 -7 98 -20 115 -31 l29 -20 -115 -9 c-189 -14 -239 -13 -728
12 -101 6 -186 13 -189 16 -4 3 7 6 23 6 16 1 88 6 159 11 123 10 413 24 555
27 36 0 104 -5 151 -12z m1384 -15 c36 -8 33 -9 -37 -12 -43 -1 -90 -3 -105
-4 -16 -2 -216 -5 -445 -9 -230 -3 -443 -9 -474 -12 -46 -6 -56 -4 -52 7 11
33 68 37 573 37 275 1 518 -3 540 -7z m-2400 -21 c-62 -5 -78 -4 -71 8 2 4 33
5 68 2 l63 -4 -60 -6z m1373 -1207 c-10 -2 -26 -2 -35 0 -10 3 -2 5 17 5 19 0
27 -2 18 -5z m-55 -50 c-7 -2 -21 -2 -30 0 -10 3 -4 5 12 5 17 0 24 -2 18 -5z
m-118 -113 c-28 -12 -45 -12 -45 0 0 6 15 10 33 9 27 0 29 -2 12 -9z m-2820
-50 c18 -8 18 -9 -5 -9 -14 0 -32 4 -40 9 -12 8 -12 10 5 9 11 0 29 -4 40 -9z
m2764 -20 c22 -1 24 -2 9 -11 -20 -11 -85 -2 -95 14 -4 7 5 8 27 4 18 -4 44
-7 59 -7z m57 -39 c27 -5 117 -14 199 -20 177 -14 195 -17 195 -35 0 -11 -8
-12 -41 -5 -23 5 -73 11 -113 13 -39 2 -84 7 -100 11 -20 5 -27 5 -22 -3 3 -6
-3 -12 -16 -14 -17 -2 -24 -12 -29 -38 -3 -19 -9 -42 -13 -50 -4 -9 2 -25 14
-38 16 -17 33 -22 73 -23 124 -2 252 -9 417 -24 30 -3 73 -10 95 -15 22 -5 59
-10 83 -10 23 0 58 -6 77 -14 18 -8 36 -12 39 -8 17 16 3 -9 -19 -33 -21 -25
-25 -27 -31 -12 -5 15 -9 15 -22 5 -8 -7 -18 -12 -21 -10 -3 2 -7 -1 -9 -7 -2
-6 5 -11 17 -11 11 0 23 -5 26 -10 3 -6 17 -7 30 -4 15 4 30 0 40 -9 25 -25
25 -25 -60 -31 -67 -5 -65 -4 -65 -21 0 -9 9 -15 24 -15 13 0 26 -5 28 -12 3
-9 11 -9 35 1 27 11 35 10 57 -4 16 -10 33 -14 47 -10 13 4 19 3 16 -2 -4 -6
13 -10 39 -11 25 0 62 -8 82 -18 37 -17 55 -21 142 -27 l45 -4 -1 -46 c-1 -54
-7 -65 -28 -48 -10 8 -16 9 -21 1 -8 -13 -52 -13 -60 0 -3 6 -31 10 -61 10
-30 0 -54 -4 -54 -10 0 -5 -4 -10 -10 -10 -5 0 -10 6 -10 14 0 23 -17 28 -60
16 -40 -11 -44 -17 -40 -55 3 -28 17 -35 73 -35 26 0 47 -4 47 -10 0 -5 7 -10
16 -10 8 0 13 -4 10 -8 -2 -4 0 -14 5 -22 6 -9 12 -11 15 -5 14 33 23 39 37
26 11 -9 16 -9 19 0 4 13 36 -2 75 -34 13 -12 29 -17 42 -12 16 5 22 0 30 -32
15 -53 14 -76 -3 -70 -10 4 -16 -7 -21 -39 -6 -44 -25 -62 -25 -25 0 27 -21
37 -35 18 -8 -11 -27 -17 -53 -17 -42 0 -91 -16 -104 -35 -4 -5 -8 0 -8 13 0
24 -1 25 -24 16 -23 -9 -21 -54 3 -54 22 0 45 -25 36 -40 -3 -5 -26 -10 -51
-10 -24 0 -44 -4 -44 -9 0 -4 -24 -2 -54 7 -50 14 -56 13 -71 -2 -9 -9 -21
-16 -26 -16 -5 0 -9 -7 -9 -16 0 -14 -2 -14 -22 0 -23 17 -58 22 -58 9 0 -5 4
-15 10 -23 13 -20 -6 -30 -58 -30 -35 0 -44 -4 -51 -22 l-8 -23 -7 23 c-9 28
-26 29 -33 1 -4 -16 -8 -17 -14 -7 -6 9 -29 12 -80 11 -39 -1 -79 2 -89 7 -10
5 -21 5 -26 0 -13 -13 -149 6 -179 26 -14 9 -25 12 -25 6 0 -7 -32 -11 -84
-11 -75 0 -84 2 -89 19 -7 26 -27 26 -27 0 0 -11 -7 -20 -15 -20 -8 0 -15 9
-15 20 0 17 -7 20 -53 20 -49 0 -77 12 -77 32 0 4 46 9 103 10 56 0 86 3 67 5
-19 2 -49 10 -67 18 -17 8 -36 15 -42 15 -6 0 -26 9 -46 20 -44 25 -55 25 -56
3 -1 -17 -2 -17 -6 0 -2 9 -8 17 -13 17 -5 0 -10 10 -12 22 -5 32 -28 35 -28
3 0 -22 -3 -26 -17 -19 -10 4 -35 9 -56 10 -56 2 -58 14 -3 14 49 0 76 16 76
44 0 9 8 16 20 16 11 0 20 4 20 10 0 5 -3 9 -7 9 -21 -3 -32 3 -36 19 -4 14
-6 14 -12 -5 -7 -23 -21 -28 -49 -17 -12 5 -13 9 -3 24 13 22 5 34 -26 35 -12
1 -40 10 -61 19 -55 25 -94 34 -153 35 -17 1 -39 8 -48 17 -14 14 -20 15 -39
4 -13 -6 -32 -10 -42 -8 -16 3 -14 7 12 21 41 21 48 42 22 66 -19 18 -19 21
-5 35 9 9 18 16 22 16 3 0 16 11 28 25 12 13 44 32 71 42 54 20 60 32 25 50
-23 12 -24 13 -2 13 12 0 30 12 42 29 11 16 36 36 56 45 37 18 44 33 20 42
-26 10 -16 22 25 29 47 8 59 21 35 39 -15 11 -12 14 25 25 36 11 41 15 36 35
-4 18 0 24 22 32 19 7 27 16 27 34 0 20 7 26 39 33 l39 10 -24 18 -24 18 21
22 c36 36 132 48 230 30z m-2679 -52 l28 -12 -25 -7 c-16 -4 -28 -2 -33 7 -5
7 -13 10 -19 7 -7 -4 -8 -2 -4 4 9 15 18 15 53 1z m3124 2 c-8 -5 -20 -7 -28
-4 -21 8 -15 13 15 13 20 0 23 -3 13 -9z m124 0 c19 -8 18 -9 -7 -21 -20 -10
-34 -10 -50 -3 l-23 11 25 10 c30 13 30 13 55 3z m-97 -23 c-7 -19 -38 -22
-38 -4 0 10 9 16 21 16 12 0 19 -5 17 -12z m-137 -53 c5 4 9 1 9 -4 0 -6 -11
-11 -25 -11 -14 0 -25 6 -25 13 0 22 13 29 23 12 4 -8 12 -13 18 -10z m-2946
-65 c3 -6 -1 -7 -9 -4 -18 7 -21 14 -7 14 6 0 13 -4 16 -10z m79 -46 c22 -8
20 -21 -4 -27 -15 -4 -20 0 -20 14 0 21 1 22 24 13z m3454 -42 c8 -6 2 -9 -18
-9 -16 0 -30 4 -30 9 0 10 31 10 48 0z m-3366 -66 c62 -19 88 -34 88 -50 0
-18 -47 -27 -54 -11 -2 7 1 18 7 24 7 7 8 11 2 10 -11 -3 -115 30 -115 37 0 7
24 4 72 -10z m3408 -36 c8 -5 11 -10 5 -10 -5 0 -17 5 -25 10 -8 5 -10 10 -5
10 6 0 17 -5 25 -10z m-3350 -103 c38 -20 70 -50 70 -64 0 -21 -21 -15 -27 7
-3 11 -11 20 -18 20 -7 0 -15 7 -19 15 -3 8 -17 15 -31 15 -15 0 -24 4 -20 10
8 13 15 13 45 -3z m3773 -68 c6 -22 -16 -26 -37 -7 -9 9 -10 15 -2 24 14 15
33 7 39 -17z m107 7 c0 -3 -4 -8 -10 -11 -5 -3 -10 -1 -10 4 0 6 5 11 10 11 6
0 10 -2 10 -4z m-540 -98 c0 -16 -3 -19 -11 -11 -6 6 -8 16 -5 22 11 17 16 13
16 -11z m-3220 -38 c0 -5 -2 -10 -4 -10 -3 0 -8 5 -11 10 -3 6 -1 10 4 10 6 0
11 -4 11 -10z m1500 -36 c0 -12 -31 -35 -40 -29 -5 3 -10 1 -10 -5 0 -6 -8
-10 -17 -8 -14 2 -18 -4 -19 -32 0 -19 -3 -34 -7 -32 -4 1 -11 2 -17 2 -5 0
-10 14 -10 30 0 27 6 33 53 54 55 26 67 29 67 20z m-90 -135 c0 -5 -7 -9 -15
-9 -15 0 -20 12 -9 23 8 8 24 -1 24 -14z m80 0 c0 -5 -13 -9 -30 -9 -16 0 -30
4 -30 8 0 5 14 9 30 10 17 0 30 -4 30 -9z m2110 1 c0 -5 -4 -10 -10 -10 -5 0
-10 5 -10 10 0 6 5 10 10 10 6 0 10 -4 10 -10z m-220 -100 c0 -5 -2 -10 -4
-10 -3 0 -8 5 -11 10 -3 6 -1 10 4 10 6 0 11 -4 11 -10z m-1310 -40 c11 -7 7
-10 -17 -10 -18 0 -33 5 -33 10 0 13 30 13 50 0z m1373 -107 c-13 -2 -33 -2
-45 0 -13 2 -3 4 22 4 25 0 35 -2 23 -4z m-166 -9 c-3 -3 -12 -4 -19 -1 -8 3
-5 6 6 6 11 1 17 -2 13 -5z m-1910 -306 c-3 -7 -5 -2 -5 12 0 14 2 19 5 13 2
-7 2 -19 0 -25z"/>
<path d="M7750 15719 c-8 -11 -26 -19 -42 -19 -15 0 -28 -4 -28 -10 0 -5 18
-10 40 -10 33 0 40 3 40 19 0 11 5 21 12 23 8 3 8 7 2 11 -6 3 -17 -3 -24 -14z"/>
<path d="M16631 10304 c0 -11 3 -14 6 -6 3 7 2 16 -1 19 -3 4 -6 -2 -5 -13z"/>
<path d="M16615 10270 c-3 -5 -1 -10 4 -10 6 0 11 5 11 10 0 6 -2 10 -4 10 -3
0 -8 -4 -11 -10z"/>
<path d="M16596 10225 c-10 -26 -7 -63 6 -71 6 -4 8 -3 4 4 -3 6 -2 21 3 34 5
14 6 30 2 37 -6 10 -10 9 -15 -4z"/>
<path d="M16875 10218 c4 -9 2 -25 -4 -36 -6 -12 -7 -30 -1 -48 8 -28 8 -28
10 11 3 39 3 39 10 10 6 -23 7 -20 4 15 -2 24 -9 49 -15 55 -7 7 -8 5 -4 -7z"/>
<path d="M16670 10170 c0 -5 5 -10 10 -10 6 0 10 5 10 10 0 6 -4 10 -10 10 -5
0 -10 -4 -10 -10z"/>
<path d="M16620 10148 c0 -10 4 -18 9 -18 5 0 12 -8 14 -17 4 -14 5 -15 6 -2
0 8 -6 24 -14 35 -13 17 -14 17 -15 2z"/>
<path d="M16565 10030 c3 -5 8 -10 11 -10 2 0 4 5 4 10 0 6 -5 10 -11 10 -5 0
-7 -4 -4 -10z"/>
<path d="M20876 7381 c-3 -4 6 -6 19 -3 14 2 25 6 25 8 0 8 -39 4 -44 -5z"/>
<path d="M21423 7373 c-34 -7 -26 -35 14 -47 25 -8 42 11 18 20 -12 5 -13 9
-4 20 6 8 8 13 3 13 -5 -1 -19 -4 -31 -6z"/>
<path d="M20190 7150 c0 -5 13 -8 29 -7 16 1 27 5 24 10 -6 10 -53 9 -53 -3z"/>
<path d="M21340 6775 c-10 -12 -10 -15 4 -15 9 0 16 7 16 15 0 8 -2 15 -4 15
-2 0 -9 -7 -16 -15z"/>
<path d="M21280 6770 c0 -5 7 -10 16 -10 8 0 12 5 9 10 -3 6 -10 10 -16 10 -5
0 -9 -4 -9 -10z"/>
<path d="M21575 6750 c-3 -5 1 -10 9 -10 9 0 16 5 16 10 0 6 -4 10 -9 10 -6 0
-13 -4 -16 -10z"/>
<path d="M21660 6723 c0 -10 -3 -28 -6 -40 -6 -21 -3 -23 30 -23 29 0 36 4 36
20 0 13 -7 20 -20 20 -13 0 -20 7 -20 20 0 11 -4 20 -10 20 -5 0 -10 -8 -10
-17z"/>
<path d="M21400 6620 c0 -11 5 -20 10 -20 6 0 10 9 10 20 0 11 -4 20 -10 20
-5 0 -10 -9 -10 -20z"/>
<path d="M14960 18004 c0 -14 3 -14 15 -4 8 7 15 14 15 16 0 2 -7 4 -15 4 -8
0 -15 -7 -15 -16z"/>
<path d="M15010 18016 c0 -2 6 -9 14 -15 10 -9 16 -8 26 4 11 13 8 15 -14 15
-14 0 -26 -2 -26 -4z"/>
<path d="M15105 18010 c3 -5 12 -7 20 -3 21 7 19 13 -6 13 -11 0 -18 -4 -14
-10z"/>
<path d="M15203 17995 c-27 -29 -28 -35 -7 -35 9 0 18 9 21 20 3 11 11 20 19
20 7 0 16 5 19 10 13 21 -31 8 -52 -15z"/>
<path d="M15350 18010 c0 -5 4 -10 9 -10 6 0 13 5 16 10 3 6 -1 10 -9 10 -9 0
-16 -4 -16 -10z"/>
<path d="M27000 17990 c0 -5 5 -10 10 -10 6 0 10 5 10 10 0 6 -4 10 -10 10 -5
0 -10 -4 -10 -10z"/>
<path d="M26992 17951 c-10 -6 -7 -10 13 -15 32 -8 46 1 25 14 -18 12 -22 12
-38 1z"/>
<path d="M15017 17924 c-8 -8 1 -24 14 -24 5 0 9 7 9 15 0 15 -12 20 -23 9z"/>
<path d="M27440 17920 c0 -5 5 -10 11 -10 5 0 7 5 4 10 -3 6 -8 10 -11 10 -2
0 -4 -4 -4 -10z"/>
<path d="M27110 17910 c-13 -9 -13 -11 0 -19 17 -12 30 -5 30 15 0 16 -9 18
-30 4z"/>
<path d="M27512 17903 c-6 -2 -10 -9 -7 -13 7 -11 35 -2 35 11 0 10 -8 10 -28
2z"/>
<path d="M14942 17888 c-16 -16 -15 -28 3 -28 8 0 15 9 15 20 0 23 -2 24 -18
8z"/>
<path d="M27035 17870 c-4 -6 5 -10 19 -10 14 0 26 5 26 10 0 6 -9 10 -19 10
-11 0 -23 -4 -26 -10z"/>
<path d="M15030 17860 c8 -5 20 -10 25 -10 6 0 3 5 -5 10 -8 5 -19 10 -25 10
-5 0 -3 -5 5 -10z"/>
<path d="M27640 17835 c-14 -26 -9 -42 9 -30 6 3 11 15 11 26 0 11 5 17 10 14
6 -3 10 -1 10 4 0 21 -27 11 -40 -14z"/>
<path d="M15095 17830 c3 -5 10 -10 16 -10 5 0 9 5 9 10 0 6 -7 10 -16 10 -8
0 -12 -4 -9 -10z"/>
<path d="M27820 17830 c0 -5 5 -10 10 -10 6 0 10 5 10 10 0 6 -4 10 -10 10 -5
0 -10 -4 -10 -10z"/>
<path d="M27760 17800 c0 -5 6 -10 14 -10 8 0 18 5 21 10 3 6 -3 10 -14 10
-12 0 -21 -4 -21 -10z"/>
<path d="M27582 17774 c-6 -7 -12 -16 -12 -19 0 -11 28 -5 39 9 16 19 -9 29
-27 10z"/>
<path d="M14783 17754 c-3 -8 -1 -20 6 -27 8 -8 11 -4 11 16 0 30 -7 35 -17
11z"/>
<path d="M14961 17744 c0 -11 3 -14 6 -6 3 7 2 16 -1 19 -3 4 -6 -2 -5 -13z"/>
<path d="M27690 17740 c0 -5 7 -10 15 -10 8 0 15 5 15 10 0 6 -7 10 -15 10 -8
0 -15 -4 -15 -10z"/>
<path d="M28000 17721 c0 -12 6 -21 15 -21 8 0 15 4 15 9 0 5 -7 14 -15 21
-13 10 -15 9 -15 -9z"/>
<path d="M28210 17650 c0 -5 4 -10 9 -10 6 0 13 5 16 10 3 6 -1 10 -9 10 -9 0
-16 -4 -16 -10z"/>
<path d="M28277 17640 c3 -11 9 -20 14 -20 5 0 9 9 9 20 0 11 -6 20 -14 20 -9
0 -12 -7 -9 -20z"/>
<path d="M14471 17604 c0 -11 3 -14 6 -6 3 7 2 16 -1 19 -3 4 -6 -2 -5 -13z"/>
<path d="M14314 17453 c7 -7 77 -5 85 3 2 2 -17 4 -44 4 -27 0 -45 -3 -41 -7z"/>
<path d="M28296 17445 c-11 -30 -6 -40 11 -22 12 12 14 20 6 28 -7 7 -12 6
-17 -6z"/>
<path d="M28360 17430 c-13 -8 -12 -10 3 -10 9 0 17 5 17 10 0 12 -1 12 -20 0z"/>
<path d="M14000 17395 c0 -8 7 -15 16 -15 14 0 14 3 4 15 -7 8 -14 15 -16 15
-2 0 -4 -7 -4 -15z"/>
<path d="M14106 17365 c4 -11 11 -12 24 -5 9 5 20 6 24 3 3 -3 6 -1 6 5 0 7
-13 12 -30 12 -22 0 -28 -4 -24 -15z"/>
<path d="M13932 17335 c-7 -14 -12 -30 -12 -34 0 -12 39 -21 46 -10 3 5 -3 9
-12 9 -14 0 -15 3 -6 12 14 14 16 48 4 48 -5 0 -14 -11 -20 -25z"/>
<path d="M13990 17345 c0 -9 9 -15 23 -15 12 0 32 -3 45 -6 13 -4 22 -2 22 5
0 6 -17 11 -41 11 -24 0 -38 4 -34 10 3 6 1 10 -4 10 -6 0 -11 -7 -11 -15z"/>
<path d="M13608 17168 c9 -9 15 -9 24 0 9 9 7 12 -12 12 -19 0 -21 -3 -12 -12z"/>
<path d="M28791 17164 c0 -11 3 -14 6 -6 3 7 2 16 -1 19 -3 4 -6 -2 -5 -13z"/>
<path d="M13160 17150 c0 -5 7 -10 15 -10 8 0 15 5 15 10 0 6 -7 10 -15 10 -8
0 -15 -4 -15 -10z"/>
<path d="M13142 17129 c2 -7 10 -15 17 -17 8 -3 12 1 9 9 -2 7 -10 15 -17 17
-8 3 -12 -1 -9 -9z"/>
<path d="M13410 17100 c0 -5 7 -10 15 -10 8 0 15 5 15 10 0 6 -7 10 -15 10 -8
0 -15 -4 -15 -10z"/>
<path d="M12960 17015 c0 -8 5 -15 10 -15 6 0 10 7 10 15 0 8 -4 15 -10 15 -5
0 -10 -7 -10 -15z"/>
<path d="M28880 16948 c0 -32 3 -39 10 -28 13 20 13 70 0 70 -5 0 -10 -19 -10
-42z"/>
<path d="M12940 16940 c0 -5 5 -10 10 -10 6 0 10 5 10 10 0 6 -4 10 -10 10 -5
0 -10 -4 -10 -10z"/>
<path d="M12411 16928 c-14 -5 -32 -8 -40 -7 -29 2 -41 -1 -41 -11 0 -5 6 -10
14 -10 8 0 17 -11 20 -25 9 -36 36 -32 36 5 0 33 19 40 44 15 20 -21 36 -19
36 5 0 13 -7 20 -19 20 -11 0 -21 4 -23 9 -2 5 -13 5 -27 -1z"/>
<path d="M12780 16930 c0 -5 5 -10 10 -10 6 0 10 -7 10 -15 0 -9 9 -15 22 -15
22 0 22 0 -4 25 -29 27 -38 31 -38 15z"/>
<path d="M28850 16930 c0 -5 5 -10 11 -10 5 0 7 5 4 10 -3 6 -8 10 -11 10 -2
0 -4 -4 -4 -10z"/>
<path d="M12558 16903 c7 -3 16 -2 19 1 4 3 -2 6 -13 5 -11 0 -14 -3 -6 -6z"/>
<path d="M12618 16903 c7 -3 16 -2 19 1 4 3 -2 6 -13 5 -11 0 -14 -3 -6 -6z"/>
<path d="M12908 16903 c7 -3 16 -2 19 1 4 3 -2 6 -13 5 -11 0 -14 -3 -6 -6z"/>
<path d="M12640 16790 c0 -5 18 -10 40 -10 22 0 40 5 40 10 0 6 -18 10 -40 10
-22 0 -40 -4 -40 -10z"/>
<path d="M12580 16750 c0 -5 5 -10 10 -10 6 0 10 5 10 10 0 6 -4 10 -10 10 -5
0 -10 -4 -10 -10z"/>
<path d="M28945 16750 c-3 -5 -1 -10 4 -10 6 0 11 5 11 10 0 6 -2 10 -4 10 -3
0 -8 -4 -11 -10z"/>
<path d="M12161 16724 c0 -11 3 -14 6 -6 3 7 2 16 -1 19 -3 4 -6 -2 -5 -13z"/>
<path d="M12231 16724 c0 -11 3 -14 6 -6 3 7 2 16 -1 19 -3 4 -6 -2 -5 -13z"/>
<path d="M12420 16704 c0 -8 5 -12 10 -9 6 3 10 10 10 16 0 5 -4 9 -10 9 -5 0
-10 -7 -10 -16z"/>
<path d="M28937 16714 c-8 -8 1 -24 14 -24 5 0 9 7 9 15 0 15 -12 20 -23 9z"/>
<path d="M28815 16701 c-3 -5 -1 -12 5 -16 5 -3 10 1 10 9 0 18 -6 21 -15 7z"/>
<path d="M28880 16670 c0 -5 7 -10 16 -10 8 0 12 5 9 10 -3 6 -10 10 -16 10
-5 0 -9 -4 -9 -10z"/>
<path d="M28840 16640 c6 -11 15 -20 19 -20 5 0 7 9 4 20 -3 11 -12 20 -20 20
-11 0 -11 -4 -3 -20z"/>
<path d="M11976 16631 c-3 -5 1 -11 9 -15 9 -3 15 0 15 9 0 16 -16 20 -24 6z"/>
<path d="M29090 16620 c0 -11 7 -20 15 -20 8 0 15 9 15 20 0 11 -7 20 -15 20
-8 0 -15 -9 -15 -20z"/>
<path d="M28840 16590 c0 -5 5 -10 10 -10 6 0 10 5 10 10 0 6 -4 10 -10 10 -5
0 -10 -4 -10 -10z"/>
<path d="M29040 16591 c0 -18 32 -43 43 -32 6 6 5 15 -6 25 -17 18 -37 21 -37
7z"/>
<path d="M12082 16555 c0 -16 2 -22 5 -12 2 9 2 23 0 30 -3 6 -5 -1 -5 -18z"/>
<path d="M11932 16485 c-11 -13 -7 -15 28 -15 29 0 40 4 40 15 0 20 -50 19
-68 0z"/>
<path d="M28996 16443 c-11 -11 -6 -23 9 -23 8 0 15 4 15 9 0 13 -16 22 -24
14z"/>
<path d="M11860 16380 c0 -33 3 -40 20 -40 17 0 20 7 20 40 0 33 -3 40 -20 40
-17 0 -20 -7 -20 -40z"/>
<path d="M11938 16395 c5 -28 17 -26 25 5 4 14 0 20 -13 20 -13 0 -16 -6 -12
-25z"/>
<path d="M28896 16365 c-9 -23 -8 -25 9 -25 17 0 19 9 6 28 -7 11 -10 10 -15
-3z"/>
<path d="M11580 16350 c0 -5 -13 -10 -30 -10 -27 0 -30 -3 -30 -30 0 -28 2
-30 39 -30 22 0 41 -5 43 -11 2 -6 17 -9 33 -7 l30 3 -32 32 c-18 17 -33 38
-33 47 0 9 -4 16 -10 16 -5 0 -10 -4 -10 -10z"/>
<path d="M11452 16328 c-17 -17 -15 -43 4 -58 13 -11 19 -10 36 8 21 21 21 22
3 42 -21 23 -27 24 -43 8z"/>
<path d="M11734 16315 c-19 -14 -18 -14 4 -15 13 0 22 6 22 15 0 19 -1 19 -26
0z"/>
<path d="M11912 16309 c-7 -10 -8 -19 -3 -19 13 0 33 28 23 33 -4 3 -13 -3
-20 -14z"/>
<path d="M10930 16275 c0 -3 7 -14 16 -23 15 -14 16 -14 13 3 -4 17 -29 35
-29 20z"/>
<path d="M11060 16220 c0 -33 3 -40 20 -40 17 0 20 7 20 40 0 33 -3 40 -20 40
-17 0 -20 -7 -20 -40z"/>
<path d="M11222 16243 c2 -10 10 -18 18 -18 8 0 16 8 18 18 2 12 -3 17 -18 17
-15 0 -20 -5 -18 -17z"/>
<path d="M28790 16245 c-11 -13 -6 -15 39 -15 39 0 51 4 51 15 0 11 -11 15
-39 15 -22 0 -44 -6 -51 -15z"/>
<path d="M10880 16226 c0 -7 9 -16 20 -19 23 -6 26 3 8 21 -16 16 -28 15 -28
-2z"/>
<path d="M11420 16220 c-13 -8 -12 -10 3 -10 9 0 17 5 17 10 0 12 -1 12 -20 0z"/>
<path d="M11332 16179 c-13 -5 -21 -13 -17 -18 7 -12 65 6 65 20 0 11 -18 11
-48 -2z"/>
<path d="M11468 16173 c7 -3 16 -2 19 1 4 3 -2 6 -13 5 -11 0 -14 -3 -6 -6z"/>
<path d="M10800 16090 c0 -5 7 -7 15 -4 8 4 15 8 15 10 0 2 -7 4 -15 4 -8 0
-15 -4 -15 -10z"/>
<path d="M10731 16074 c0 -11 3 -14 6 -6 3 7 2 16 -1 19 -3 4 -6 -2 -5 -13z"/>
<path d="M10018 16062 c-10 -2 -18 -10 -18 -18 0 -8 -15 -16 -40 -20 -25 -4
-40 -12 -40 -21 0 -11 8 -13 33 -8 17 4 38 12 45 17 8 8 12 6 12 -4 0 -8 9
-23 20 -33 11 -10 20 -26 20 -37 0 -19 25 -25 35 -8 18 29 95 -3 95 -39 0 -6
14 -18 32 -25 29 -13 33 -12 49 8 16 20 18 20 37 3 19 -17 20 -17 26 0 4 10 7
20 6 23 -1 9 -85 -2 -91 -12 -4 -7 -9 -6 -14 1 -4 7 -1 19 6 27 10 13 10 17
-1 24 -7 4 -19 6 -26 3 -8 -3 -17 10 -24 36 -8 31 -16 41 -31 41 -11 0 -18 4
-15 9 3 5 0 13 -7 19 -14 11 -84 20 -109 14z m62 -46 c0 -3 -4 -8 -10 -11 -5
-3 -10 -1 -10 4 0 6 5 11 10 11 6 0 10 -2 10 -4z"/>
<path d="M11470 16050 c-13 -9 -13 -10 0 -10 8 0 22 5 30 10 13 9 13 10 0 10
-8 0 -22 -5 -30 -10z"/>
<path d="M28880 16030 c0 -5 7 -10 16 -10 8 0 12 5 9 10 -3 6 -10 10 -16 10
-5 0 -9 -4 -9 -10z"/>
<path d="M28880 15970 c0 -27 3 -30 30 -30 27 0 30 2 20 20 -6 11 -19 24 -30
30 -18 10 -20 7 -20 -20z"/>
<path d="M10342 15968 c6 -18 22 -20 43 -3 19 14 18 14 -13 15 -22 0 -32 -4
-30 -12z"/>
<path d="M10240 15950 c0 -17 39 -32 58 -21 15 9 15 10 -5 11 -12 0 -25 5 -28
10 -8 13 -25 13 -25 0z"/>
<path d="M29018 15933 c7 -3 16 -2 19 1 4 3 -2 6 -13 5 -11 0 -14 -3 -6 -6z"/>
<path d="M28795 15880 c-3 -5 -16 -10 -28 -10 -12 0 -29 -5 -37 -10 -10 -6 -3
-7 24 -3 27 4 41 2 48 -8 7 -11 11 -11 15 -1 2 6 18 12 34 12 19 0 29 5 29 15
0 17 -75 22 -85 5z"/>
<path d="M10040 15850 c0 -5 4 -10 9 -10 6 0 13 5 16 10 3 6 -1 10 -9 10 -9 0
-16 -4 -16 -10z"/>
<path d="M10180 15844 c0 -8 5 -12 10 -9 6 3 10 10 10 16 0 5 -4 9 -10 9 -5 0
-10 -7 -10 -16z"/>
<path d="M28760 15795 c0 -8 9 -15 20 -15 11 0 20 7 20 15 0 8 -9 15 -20 15
-11 0 -20 -7 -20 -15z"/>
<path d="M10016 15791 c-8 -12 21 -34 34 -26 7 4 5 11 -4 21 -17 16 -23 17
-30 5z"/>
<path d="M9920 15769 c0 -5 5 -7 10 -4 6 3 10 8 10 11 0 2 -4 4 -10 4 -5 0
-10 -5 -10 -11z"/>
<path d="M8640 15710 c0 -5 9 -10 20 -10 11 0 20 5 20 10 0 6 -9 10 -20 10
-11 0 -20 -4 -20 -10z"/>
<path d="M28620 15710 c0 -5 5 -10 10 -10 6 0 10 5 10 10 0 6 -4 10 -10 10 -5
0 -10 -4 -10 -10z"/>
<path d="M9280 15699 c0 -5 5 -7 10 -4 6 3 10 8 10 11 0 2 -4 4 -10 4 -5 0
-10 -5 -10 -11z"/>
<path d="M8560 15685 c0 -8 7 -15 15 -15 8 0 15 7 15 15 0 8 -7 15 -15 15 -8
0 -15 -7 -15 -15z"/>
<path d="M8658 15683 c-24 -6 -23 -20 2 -28 27 -9 60 3 60 21 0 14 -26 17 -62
7z"/>
<path d="M9200 15665 c0 -11 11 -15 40 -15 29 0 40 4 40 15 0 11 -11 15 -40
15 -29 0 -40 -4 -40 -15z"/>
<path d="M28657 15673 c-4 -3 -7 -12 -7 -20 0 -17 26 -17 33 1 8 21 -11 35
-26 19z"/>
<path d="M28621 15637 c-12 -15 -11 -17 3 -17 9 0 16 -7 16 -15 0 -8 5 -15 10
-15 6 0 10 7 10 15 0 8 -4 15 -9 15 -5 0 -11 7 -13 17 -3 15 -4 15 -17 0z"/>
<path d="M8940 15605 c7 -9 16 -12 19 -7 3 5 13 12 21 15 8 3 0 6 -19 6 -29 1
-32 -1 -21 -14z"/>
<path d="M28556 15464 c-5 -14 -4 -15 9 -4 17 14 19 20 6 20 -5 0 -12 -7 -15
-16z"/>
<path d="M8513 15434 c-8 -21 13 -34 55 -34 38 0 41 12 7 34 -31 20 -54 20
-62 0z"/>
<path d="M28650 15365 c0 -8 7 -15 15 -15 8 0 15 7 15 15 0 8 -7 15 -15 15 -8
0 -15 -7 -15 -15z"/>
<path d="M28686 15315 c-3 -8 -1 -15 4 -15 6 0 10 7 10 15 0 8 -2 15 -4 15 -2
0 -6 -7 -10 -15z"/>
<path d="M28728 15293 c7 -3 16 -2 19 1 4 3 -2 6 -13 5 -11 0 -14 -3 -6 -6z"/>
<path d="M8080 15210 c0 -5 7 -7 15 -4 8 4 15 8 15 10 0 2 -7 4 -15 4 -8 0
-15 -4 -15 -10z"/>
<path d="M28872 15180 c0 -14 2 -19 5 -12 2 6 2 18 0 25 -3 6 -5 1 -5 -13z"/>
<path d="M28836 15094 c-22 -13 -30 -13 -36 -4 -11 18 -41 4 -34 -15 4 -9 13
-14 20 -11 8 3 14 1 14 -4 0 -6 11 -10 24 -10 15 0 26 -7 29 -20 4 -17 10 -20
34 -14 36 9 83 44 59 44 -9 0 -16 4 -16 9 0 16 -30 41 -48 41 -9 -1 -30 -8
-46 -16z"/>
<path d="M28768 15003 c6 -2 18 -2 25 0 6 3 1 5 -13 5 -14 0 -19 -2 -12 -5z"/>
<path d="M28848 14903 c6 -2 18 -2 25 0 6 3 1 5 -13 5 -14 0 -19 -2 -12 -5z"/>
<path d="M7360 14885 c0 -8 2 -15 4 -15 2 0 6 7 10 15 3 8 1 15 -4 15 -6 0
-10 -7 -10 -15z"/>
<path d="M29040 14860 c0 -5 5 -10 11 -10 5 0 7 5 4 10 -3 6 -8 10 -11 10 -2
0 -4 -4 -4 -10z"/>
<path d="M7183 14843 c-18 -7 -16 -23 2 -23 8 0 15 7 15 15 0 8 -1 15 -2 14
-2 0 -9 -3 -15 -6z"/>
<path d="M6640 14564 c0 -8 5 -12 10 -9 6 3 10 10 10 16 0 5 -4 9 -10 9 -5 0
-10 -7 -10 -16z"/>
<path d="M29270 14540 c0 -35 3 -40 23 -40 20 1 21 2 5 14 -21 16 -23 36 -4
36 8 0 16 7 20 15 4 11 -1 15 -19 15 -22 0 -25 -4 -25 -40z"/>
<path d="M29150 14460 c-9 -6 -10 -10 -3 -10 6 0 15 5 18 10 8 12 4 12 -15 0z"/>
<path d="M29120 14424 c0 -8 5 -12 10 -9 6 4 8 11 5 16 -9 14 -15 11 -15 -7z"/>
<path d="M29185 14410 c4 -6 11 -8 16 -5 14 9 11 15 -7 15 -8 0 -12 -5 -9 -10z"/>
<path d="M6860 14370 c-8 -5 -25 -10 -37 -10 -12 0 -24 -4 -27 -9 -5 -7 74 -3
83 4 10 11 -6 23 -19 15z"/>
<path d="M8145 14230 c3 -5 8 -10 11 -10 2 0 4 5 4 10 0 6 -5 10 -11 10 -5 0
-7 -4 -4 -10z"/>
<path d="M7478 14183 c6 -2 18 -2 25 0 6 3 1 5 -13 5 -14 0 -19 -2 -12 -5z"/>
<path d="M8790 14125 c-12 -14 -12 -18 1 -25 19 -12 33 4 22 25 -9 15 -11 15
-23 0z"/>
<path d="M8700 14116 c0 -10 9 -16 21 -16 24 0 21 23 -4 28 -10 2 -17 -3 -17
-12z"/>
<path d="M29040 14030 c0 -5 5 -10 11 -10 5 0 7 5 4 10 -3 6 -8 10 -11 10 -2
0 -4 -4 -4 -10z"/>
<path d="M9280 14006 c0 -8 -6 -17 -12 -20 -10 -5 -10 -7 0 -12 14 -7 16 -34
2 -34 -5 0 -10 -4 -10 -10 0 -16 27 -11 34 6 10 25 7 84 -4 84 -5 0 -10 -6
-10 -14z"/>
<path d="M9200 13980 c0 -5 5 -10 10 -10 6 0 10 5 10 10 0 6 -4 10 -10 10 -5
0 -10 -4 -10 -10z"/>
<path d="M9070 13850 c0 -5 5 -10 10 -10 6 0 10 5 10 10 0 6 -4 10 -10 10 -5
0 -10 -4 -10 -10z"/>
<path d="M9014 13836 c-5 -14 28 -56 43 -56 4 0 2 5 -5 12 -7 7 -12 22 -12 35
0 25 -17 31 -26 9z"/>
<path d="M9096 13784 c-21 -15 -21 -16 12 -33 24 -13 46 -6 25 7 -6 4 -12 15
-14 24 -4 15 -6 15 -23 2z"/>
<path d="M28850 13770 c0 -5 5 -10 10 -10 6 0 10 5 10 10 0 6 -4 10 -10 10 -5
0 -10 -4 -10 -10z"/>
<path d="M28925 13750 c3 -5 13 -10 21 -10 8 0 14 5 14 10 0 6 -9 10 -21 10
-11 0 -17 -4 -14 -10z"/>
<path d="M9025 13710 c-3 -6 -1 -10 4 -10 6 0 11 -9 11 -20 0 -22 15 -27 25
-9 4 6 -2 19 -13 30 -12 11 -23 15 -27 9z"/>
<path d="M9120 13635 c0 -8 7 -15 16 -15 14 0 14 3 4 15 -7 8 -14 15 -16 15
-2 0 -4 -7 -4 -15z"/>
<path d="M9271 13491 c-7 -5 -11 -13 -7 -19 3 -6 0 -13 -6 -15 -8 -4 -9 -6 -2
-6 7 -1 19 10 28 24 17 26 12 32 -13 16z"/>
<path d="M28755 13450 c28 -12 45 -12 45 0 0 6 -15 10 -32 9 -28 0 -30 -2 -13
-9z"/>
<path d="M9250 13410 c0 -5 5 -10 10 -10 6 0 10 5 10 10 0 6 -4 10 -10 10 -5
0 -10 -4 -10 -10z"/>
<path d="M9295 13300 c27 -12 43 -12 25 0 -8 5 -22 9 -30 9 -10 0 -8 -3 5 -9z"/>
<path d="M9160 13241 c0 -5 11 -11 25 -13 17 -4 25 -1 25 8 0 8 -11 14 -25 14
-14 0 -25 -4 -25 -9z"/>
<path d="M9270 13235 c0 -8 4 -15 10 -15 5 0 7 7 4 15 -4 8 -8 15 -10 15 -2 0
-4 -7 -4 -15z"/>
<path d="M28741 13212 c-1 -7 -11 -16 -23 -21 -26 -10 -11 -20 18 -12 17 5 19
10 13 26 -4 11 -8 14 -8 7z"/>
<path d="M28060 12975 c0 -8 5 -15 11 -15 6 0 17 7 25 15 14 13 13 15 -10 15
-16 0 -26 -6 -26 -15z"/>
<path d="M10100 12775 c0 -9 5 -15 11 -13 6 2 11 8 11 13 0 5 -5 11 -11 13 -6
2 -11 -4 -11 -13z"/>
<path d="M27520 12756 c0 -9 5 -16 10 -16 6 0 10 4 10 9 0 6 -4 13 -10 16 -5
3 -10 -1 -10 -9z"/>
<path d="M27363 12743 c9 -2 25 -2 35 0 9 3 1 5 -18 5 -19 0 -27 -2 -17 -5z"/>
<path d="M12145 12490 c3 -5 8 -10 11 -10 2 0 4 5 4 10 0 6 -5 10 -11 10 -5 0
-7 -4 -4 -10z"/>
<path d="M12240 12379 c0 -5 5 -7 10 -4 6 3 10 8 10 11 0 2 -4 4 -10 4 -5 0
-10 -5 -10 -11z"/>
<path d="M26580 12305 c0 -17 5 -25 13 -22 6 2 12 12 12 22 0 10 -6 20 -12 23
-8 2 -13 -6 -13 -23z"/>
<path d="M26507 12224 c-13 -13 -7 -24 14 -24 11 0 19 5 17 12 -5 14 -22 21
-31 12z"/>
<path d="M26505 12181 c-7 -12 12 -24 25 -16 11 7 4 25 -10 25 -5 0 -11 -4
-15 -9z"/>
<path d="M26240 12145 c0 -16 16 -20 24 -6 3 5 -1 11 -9 15 -9 3 -15 0 -15 -9z"/>
<path d="M12522 12126 c7 -7 19 -11 25 -9 22 9 14 23 -12 23 -21 0 -24 -2 -13
-14z"/>
<path d="M12641 12054 c-12 -14 -19 -29 -15 -32 4 -4 9 -1 11 6 3 7 12 19 20
28 8 8 13 17 11 19 -3 3 -15 -7 -27 -21z"/>
<path d="M25498 11943 c7 -3 16 -2 19 1 4 3 -2 6 -13 5 -11 0 -14 -3 -6 -6z"/>
<path d="M25440 11854 c0 -11 5 -14 16 -10 9 3 20 6 25 6 6 0 7 5 4 10 -10 16
-45 12 -45 -6z"/>
<path d="M25335 11790 c-3 -5 1 -10 9 -10 9 0 16 5 16 10 0 6 -4 10 -9 10 -6
0 -13 -4 -16 -10z"/>
<path d="M25120 11716 c0 -9 5 -16 10 -16 6 0 10 4 10 9 0 6 -4 13 -10 16 -5
3 -10 -1 -10 -9z"/>
<path d="M11602 11640 c0 -14 2 -19 5 -12 2 6 2 18 0 25 -3 6 -5 1 -5 -13z"/>
<path d="M11640 11635 c0 -8 5 -15 10 -15 6 0 10 7 10 15 0 8 -4 15 -10 15 -5
0 -10 -7 -10 -15z"/>
<path d="M24353 11453 c9 -2 23 -2 30 0 6 3 -1 5 -18 5 -16 0 -22 -2 -12 -5z"/>
<path d="M23825 11331 c-3 -5 -1 -12 5 -16 5 -3 10 1 10 9 0 18 -6 21 -15 7z"/>
<path d="M11540 11230 c0 -5 5 -10 10 -10 6 0 10 5 10 10 0 6 -4 10 -10 10 -5
0 -10 -4 -10 -10z"/>
<path d="M11510 11205 c0 -8 5 -15 10 -15 6 0 10 7 10 15 0 8 -4 15 -10 15 -5
0 -10 -7 -10 -15z"/>
<path d="M23615 11110 c-3 -5 -1 -10 4 -10 6 0 11 5 11 10 0 6 -2 10 -4 10 -3
0 -8 -4 -11 -10z"/>
<path d="M11440 11045 c0 -28 15 -34 24 -9 10 25 7 34 -9 34 -9 0 -15 -9 -15
-25z"/>
<path d="M23555 11030 c-3 -5 1 -10 10 -10 9 0 13 5 10 10 -3 6 -8 10 -10 10
-2 0 -7 -4 -10 -10z"/>
<path d="M23330 10959 l-25 -6 25 -10 c14 -6 26 -7 28 -2 7 18 -4 25 -28 18z"/>
<path d="M11600 10889 c0 -18 2 -19 15 -9 15 12 12 30 -6 30 -5 0 -9 -10 -9
-21z"/>
<path d="M11920 10844 c0 -8 5 -12 10 -9 6 3 10 10 10 16 0 5 -4 9 -10 9 -5 0
-10 -7 -10 -16z"/>
<path d="M22882 10836 c-18 -9 -13 -11 29 -13 34 -2 49 2 49 11 0 16 -50 17
-78 2z"/>
<path d="M11690 10830 c0 -5 5 -10 11 -10 5 0 7 5 4 10 -3 6 -8 10 -11 10 -2
0 -4 -4 -4 -10z"/>
<path d="M12065 10810 c-3 -5 -1 -10 4 -10 6 0 11 5 11 10 0 6 -2 10 -4 10 -3
0 -8 -4 -11 -10z"/>
<path d="M21883 10733 c9 -2 23 -2 30 0 6 3 -1 5 -18 5 -16 0 -22 -2 -12 -5z"/>
<path d="M21840 10710 c0 -5 5 -10 11 -10 5 0 7 5 4 10 -3 6 -8 10 -11 10 -2
0 -4 -4 -4 -10z"/>
<path d="M20850 10668 c0 -4 7 -8 15 -8 8 0 15 4 15 8 0 5 -7 9 -15 9 -8 0
-15 -4 -15 -9z"/>
<path d="M21338 10663 c7 -3 16 -2 19 1 4 3 -2 6 -13 5 -11 0 -14 -3 -6 -6z"/>
<path d="M15397 10488 c-4 -12 -9 -19 -13 -15 -4 3 -15 2 -25 -4 -11 -5 -19
-6 -19 -1 0 5 -12 14 -27 21 -22 10 -29 9 -42 -3 -25 -26 -1 -36 85 -36 43 0
91 0 106 0 31 0 45 15 22 24 -9 4 -14 13 -10 21 4 12 -3 15 -33 15 -31 0 -40
-4 -44 -22z"/>
<path d="M16162 10416 c7 -8 15 -12 17 -11 5 6 -10 25 -20 25 -5 0 -4 -6 3
-14z"/>
<path d="M15905 10140 c-3 -5 -1 -10 4 -10 6 0 11 5 11 10 0 6 -2 10 -4 10 -3
0 -8 -4 -11 -10z"/>
<path d="M15921 9988 c0 -28 2 -30 9 -13 12 28 12 45 0 45 -5 0 -10 -15 -9
-32z"/>
</g>
</svg>
